<?xml version="1.0" encoding="UTF-8"?>
<svg xmlns="http://www.w3.org/2000/svg" xmlns:xlink="http://www.w3.org/1999/xlink" viewBox="0 0 128 128" width="128px" height="128px">
<g id="surface98562770">
<path style=" stroke:none;fill-rule:nonzero;fill:rgb(100%,100%,100%);fill-opacity:1;" d="M 121.800781 80.902344 C 119 78.199219 114.601562 78.5 111.902344 81.199219 C 97 96.101562 84.601562 100.902344 69.5 99 C 63.300781 98.199219 60.199219 96.402344 54.601562 93.902344 C 54.101562 93.699219 52.800781 93 51.402344 92.101562 C 47.402344 89.800781 47.402344 84 51.402344 81.699219 L 66.402344 73 C 70.101562 70.902344 71.699219 66.199219 69.800781 62.402344 C 67.699219 58.199219 62.601562 56.699219 58.601562 59 L 24 79 L 14 79 L 14 76 L 1 76 L 1 116 L 14 116 L 14 109 C 14 109 38 119 58.402344 119 C 85.800781 119 108.5 105.199219 121.800781 91.101562 C 124.5 88.199219 124.601562 83.601562 121.800781 80.902344 Z M 121.800781 80.902344 "/>
<path style=" stroke:none;fill-rule:nonzero;fill:rgb(26.666668%,29.411766%,32.941177%);fill-opacity:1;" d="M 123.902344 78.699219 C 120 75 113.800781 75.101562 109.800781 79 C 95.902344 92.902344 84.300781 97.800781 69.902344 96 C 65 95.402344 62.402344 94.199219 58.199219 92.199219 C 57.5 91.902344 56.699219 91.5 55.902344 91.101562 C 55.699219 91 55.101562 90.699219 52.902344 89.5 C 51.5 88.699219 51.402344 87.402344 51.402344 86.902344 C 51.402344 86.402344 51.5 85.101562 52.902344 84.300781 L 68 75.601562 C 73.101562 72.601562 75.199219 66.300781 72.601562 61.101562 C 71.199219 58.300781 68.902344 56.300781 65.902344 55.402344 C 63 54.5 59.800781 54.902344 57.199219 56.402344 L 22.601562 76.402344 C 21.199219 77.199219 20.699219 79.101562 21.5 80.5 C 22.300781 81.902344 24.199219 82.402344 25.601562 81.601562 L 60.199219 61.601562 C 61.402344 60.902344 62.800781 60.699219 64.199219 61.101562 C 65.5 61.5 66.601562 62.402344 67.199219 63.699219 C 68.402344 66 67.402344 69 65 70.402344 L 49.902344 79.101562 C 47.101562 80.699219 45.398438 83.601562 45.398438 86.902344 C 45.398438 90.199219 47.101562 93.101562 49.902344 94.699219 C 52.199219 96 53 96.402344 53.402344 96.601562 C 54.199219 97 55 97.300781 55.699219 97.699219 C 60.199219 99.800781 63.402344 101.300781 69.199219 102 C 85.5 104 98.902344 98.5 114.101562 83.300781 C 115.699219 81.699219 118.300781 81.601562 119.800781 83.101562 C 121.300781 84.601562 121.300781 87.300781 119.699219 89 C 113.699219 95.300781 91.601562 116 58.402344 116 C 42 116 22.898438 109.199219 17 107 L 17 76 C 17 74.300781 15.699219 73 14 73 L 4 73 C 2.300781 73 1 74.300781 1 76 C 1 77.699219 2.300781 79 4 79 L 11 79 L 11 113 L 4 113 C 2.300781 113 1 114.300781 1 116 C 1 117.699219 2.300781 119 4 119 L 14 119 C 15.699219 119 17 117.699219 17 116 L 17 113.402344 C 24.898438 116.300781 42.5 122 58.402344 122 C 82.402344 122 106.902344 111.199219 124 93.101562 C 127.902344 89.101562 127.800781 82.5 123.902344 78.699219 Z M 123.902344 78.699219 "/>
<path style=" stroke:none;fill-rule:nonzero;fill:rgb(10.980392%,73.333335%,35.686275%);fill-opacity:1;" d="M 81.402344 61.199219 C 87.300781 43.199219 108.5 35.5 124.601562 45.5 C 118.699219 63.5 97.5 71.199219 81.402344 61.199219 Z M 81.402344 61.199219 "/>
<path style=" stroke:none;fill-rule:nonzero;fill:rgb(54.509807%,85.882354%,26.274511%);fill-opacity:1;" d="M 81.402344 61.199219 C 84.902344 63.402344 88.699219 64.699219 92.5 65.300781 C 101.800781 60 109 51.601562 112.800781 41.300781 C 99.5 39.601562 85.902344 47.402344 81.402344 61.199219 Z M 81.402344 61.199219 "/>
<path style=" stroke:none;fill-rule:nonzero;fill:rgb(24.705882%,29.019609%,32.941177%);fill-opacity:1;" d="M 81.402344 64.199219 C 81.199219 64.199219 81 64.199219 80.800781 64.199219 C 80.601562 64.199219 80.402344 64.101562 80.199219 64 C 80 63.902344 79.800781 63.800781 79.699219 63.699219 C 79.5 63.601562 79.402344 63.5 79.199219 63.300781 C 79.101562 63.199219 78.902344 63 78.800781 62.800781 C 78.699219 62.601562 78.601562 62.5 78.5 62.300781 C 78.402344 62.101562 78.402344 61.902344 78.300781 61.699219 C 78.199219 61.5 78.199219 61.300781 78.199219 61.101562 C 78.199219 60.300781 78.5 59.5 79.101562 59 C 79.199219 58.902344 79.402344 58.699219 79.601562 58.601562 C 79.800781 58.5 79.902344 58.402344 80.101562 58.300781 C 80.300781 58.199219 80.5 58.199219 80.699219 58.101562 C 81.101562 58 81.5 58 81.902344 58.101562 C 82.101562 58.101562 82.300781 58.199219 82.5 58.300781 C 82.699219 58.402344 82.902344 58.5 83 58.601562 C 83.199219 58.699219 83.300781 58.800781 83.5 59 C 84.101562 59.601562 84.402344 60.300781 84.402344 61.101562 C 84.402344 61.300781 84.402344 61.5 84.300781 61.699219 C 84.199219 61.902344 84.199219 62.101562 84.101562 62.300781 C 84 62.5 83.902344 62.699219 83.800781 62.800781 C 83.699219 63 83.601562 63.101562 83.402344 63.300781 C 83 63.902344 82.199219 64.199219 81.402344 64.199219 Z M 96.902344 68.601562 C 95.300781 68.601562 93.699219 68.5 92 68.199219 C 90.402344 68 89.199219 66.402344 89.5 64.800781 C 89.699219 63.199219 91.300781 62 92.902344 62.300781 C 104.800781 64.101562 116.101562 57.601562 120.800781 46.800781 C 118.101562 45.5 115.300781 44.601562 112.402344 44.199219 C 110.800781 44 109.601562 42.5 109.800781 40.800781 C 110 39.199219 111.5 38 113.199219 38.199219 C 117.800781 38.800781 122.199219 40.300781 126.199219 42.800781 C 127.402344 43.5 127.902344 45 127.5 46.300781 C 123.101562 59.902344 110.699219 68.601562 96.902344 68.601562 Z M 96.902344 68.601562 "/>
<path style=" stroke:none;fill-rule:nonzero;fill:rgb(10.980392%,73.333335%,35.686275%);fill-opacity:1;" d="M 101.699219 5.601562 C 114.601562 26.300781 104.699219 53.699219 81.5 61.199219 C 68.601562 40.5 78.5 13.199219 101.699219 5.601562 Z M 101.699219 5.601562 "/>
<path style=" stroke:none;fill-rule:nonzero;fill:rgb(100%,100%,100%);fill-opacity:1;" d="M 84.300781 56.601562 C 83.199219 56.601562 82.199219 56 81.601562 55 C 80.800781 53.5 81.402344 51.699219 82.902344 51 C 89.300781 47.699219 94.199219 42.199219 96.699219 35.300781 C 97.300781 33.699219 99 32.898438 100.5 33.5 C 102.101562 34.101562 102.902344 35.800781 102.300781 37.300781 C 99.300781 45.601562 93.402344 52.300781 85.601562 56.199219 C 85.199219 56.5 84.699219 56.601562 84.300781 56.601562 Z M 84.300781 56.601562 "/>
<path style=" stroke:none;fill-rule:nonzero;fill:rgb(24.705882%,29.019609%,32.941177%);fill-opacity:1;" d="M 81.5 64.300781 C 80.5 64.300781 79.5 63.800781 79 62.902344 C 72.300781 52.199219 71 39.398438 75.300781 27.5 C 79.601562 15.699219 88.902344 6.699219 100.902344 2.800781 C 102.199219 2.398438 103.601562 2.898438 104.402344 4.101562 C 111.101562 14.800781 112.402344 27.601562 108.101562 39.5 C 103.800781 51.402344 94.402344 60.199219 82.402344 64.101562 C 82.101562 64.199219 81.800781 64.300781 81.5 64.300781 Z M 100.402344 9.300781 C 91.300781 13 84.300781 20.199219 80.902344 29.5 C 77.5 38.800781 78.199219 48.902344 82.800781 57.5 C 91.902344 53.800781 98.902344 46.601562 102.300781 37.300781 C 105.699219 28 105 18 100.402344 9.300781 Z M 100.402344 9.300781 "/>
<path style=" stroke:none;fill-rule:nonzero;fill:rgb(10.980392%,73.333335%,35.686275%);fill-opacity:1;" d="M 60.402344 47 C 65.199219 39.699219 61.800781 29.898438 53.601562 27 C 48.800781 34.300781 52.199219 44.199219 60.402344 47 Z M 60.402344 47 "/>
<path style=" stroke:none;fill-rule:nonzero;fill:rgb(10.980392%,73.333335%,35.686275%);fill-opacity:1;" d="M 60.402344 50 C 59.800781 50 59.300781 49.800781 58.800781 49.5 C 57.402344 48.601562 57 46.699219 57.902344 45.300781 C 59.699219 42.601562 60.101562 39.300781 59 36.199219 C 58 33.101562 55.601562 30.800781 52.601562 29.699219 C 51 29.199219 50.199219 27.398438 50.699219 25.898438 C 51.199219 24.300781 52.902344 23.5 54.5 24 C 59.300781 25.699219 63 29.398438 64.699219 34.199219 C 66.402344 39 65.699219 44.199219 62.902344 48.5 C 62.300781 49.601562 61.402344 50 60.402344 50 Z M 60.402344 50 "/>
<path style=" stroke:none;fill-rule:nonzero;fill:rgb(24.705882%,29.019609%,32.941177%);fill-opacity:1;" d="M 60.402344 50 C 60.101562 50 59.699219 49.902344 59.402344 49.800781 C 54.601562 48.101562 50.902344 44.398438 49.199219 39.601562 C 47.601562 34.800781 48.199219 29.601562 51 25.300781 C 51.800781 24.101562 53.199219 23.699219 54.5 24.101562 C 59.601562 25.898438 63.5 30 64.902344 35.199219 C 65.300781 36.800781 64.402344 38.398438 62.800781 38.898438 C 61.199219 39.300781 59.601562 38.398438 59.101562 36.800781 C 58.402344 34.300781 56.902344 32.300781 54.800781 30.898438 C 54.101562 33.101562 54.101562 35.398438 54.800781 37.601562 C 55.800781 40.699219 58.199219 43 61.199219 44.101562 C 62.800781 44.601562 63.601562 46.402344 63.101562 47.902344 C 62.800781 49.300781 61.699219 50 60.402344 50 Z M 60.402344 50 "/>
<path style=" stroke:none;fill-rule:nonzero;fill:rgb(24.705882%,29.019609%,32.941177%);fill-opacity:1;" d="M 76.199219 86.601562 C 75.199219 86.601562 74.199219 86.101562 73.699219 85.199219 C 72.800781 83.800781 73.199219 81.902344 74.699219 81.101562 C 77.699219 79.199219 79.800781 76.300781 80.601562 72.800781 C 81 71.199219 82.601562 70.199219 84.199219 70.601562 C 85.800781 71 86.800781 72.601562 86.402344 74.199219 C 85.199219 79.199219 82.199219 83.5 77.902344 86.199219 C 77.300781 86.5 76.800781 86.601562 76.199219 86.601562 Z M 76.199219 86.601562 "/>
</g>
</svg>
