<?xml version="1.0" encoding="UTF-8"?>
<svg xmlns="http://www.w3.org/2000/svg" xmlns:xlink="http://www.w3.org/1999/xlink" viewBox="0 0 64 64" width="64px" height="64px">
<g id="surface6455133">
<path style=" stroke:none;fill-rule:nonzero;fill:rgb(100%,100%,100%);fill-opacity:1;" d="M 60.902344 40.449219 C 59.5 39.101562 57.300781 39.25 55.949219 40.601562 C 48.5 48.050781 42.300781 50.449219 34.75 49.5 C 31.648438 49.101562 30.101562 48.199219 27.300781 46.949219 C 27.050781 46.851562 26.398438 46.5 25.699219 46.050781 C 23.699219 44.898438 23.699219 42 25.699219 40.851562 L 33.199219 36.5 C 35.050781 35.449219 35.851562 33.101562 34.898438 31.199219 C 33.851562 29.101562 31.300781 28.351562 29.300781 29.5 L 12 39.5 L 7 39.5 L 7 38 L 0.5 38 L 0.5 58 L 7 58 L 7 54.5 C 7 54.5 19 59.5 29.199219 59.5 C 42.898438 59.5 54.25 52.601562 60.902344 45.550781 C 62.25 44.101562 62.300781 41.800781 60.902344 40.449219 Z M 60.902344 40.449219 "/>
<path style=" stroke:none;fill-rule:nonzero;fill:rgb(26.666668%,29.411766%,32.941177%);fill-opacity:1;" d="M 61.949219 39.351562 C 60 37.5 56.902344 37.550781 54.902344 39.5 C 47.949219 46.449219 42.148438 48.902344 34.949219 48 C 32.5 47.699219 31.199219 47.101562 29.101562 46.101562 C 28.75 45.949219 28.351562 45.75 27.949219 45.550781 C 27.851562 45.5 27.550781 45.351562 26.449219 44.75 C 25.75 44.351562 25.699219 43.699219 25.699219 43.449219 C 25.699219 43.199219 25.75 42.550781 26.449219 42.148438 L 34 37.800781 C 36.550781 36.300781 37.601562 33.148438 36.300781 30.550781 C 35.601562 29.148438 34.449219 28.148438 32.949219 27.699219 C 31.5 27.25 29.898438 27.449219 28.601562 28.199219 L 11.300781 38.199219 C 10.601562 38.601562 10.351562 39.550781 10.75 40.25 C 11.148438 40.949219 12.101562 41.199219 12.800781 40.800781 L 30.101562 30.800781 C 30.699219 30.449219 31.398438 30.351562 32.101562 30.550781 C 32.75 30.75 33.300781 31.199219 33.601562 31.851562 C 34.199219 33 33.699219 34.5 32.5 35.199219 L 24.949219 39.550781 C 23.550781 40.351562 22.699219 41.800781 22.699219 43.449219 C 22.699219 45.101562 23.550781 46.550781 24.949219 47.351562 C 26.101562 48 26.5 48.199219 26.699219 48.300781 C 27.101562 48.5 27.5 48.652344 27.851562 48.851562 C 30.101562 49.902344 31.699219 50.652344 34.601562 51 C 42.75 52 49.449219 49.25 57.050781 41.648438 C 57.851562 40.851562 59.152344 40.800781 59.902344 41.550781 C 60.652344 42.300781 60.652344 43.648438 59.851562 44.5 C 56.851562 47.652344 45.800781 58 29.199219 58 C 21 58 11.449219 54.601562 8.5 53.5 L 8.5 38 C 8.5 37.148438 7.851562 36.5 7 36.5 L 2 36.5 C 1.148438 36.5 0.5 37.148438 0.5 38 C 0.5 38.851562 1.148438 39.5 2 39.5 L 5.5 39.5 L 5.5 56.5 L 2 56.5 C 1.148438 56.5 0.5 57.152344 0.5 58 C 0.5 58.851562 1.148438 59.5 2 59.5 L 7 59.5 C 7.851562 59.5 8.5 58.851562 8.5 58 L 8.5 56.699219 C 12.449219 58.152344 21.25 61 29.199219 61 C 41.199219 61 53.449219 55.601562 62 46.550781 C 63.949219 44.550781 63.902344 41.25 61.949219 39.351562 Z M 61.949219 39.351562 "/>
<path style=" stroke:none;fill-rule:nonzero;fill:rgb(10.980392%,73.333335%,35.686275%);fill-opacity:1;" d="M 40.699219 30.601562 C 43.648438 21.601562 54.25 17.75 62.300781 22.75 C 59.351562 31.75 48.75 35.601562 40.699219 30.601562 Z M 40.699219 30.601562 "/>
<path style=" stroke:none;fill-rule:nonzero;fill:rgb(54.509807%,85.882354%,26.274511%);fill-opacity:1;" d="M 40.699219 30.601562 C 42.449219 31.699219 44.351562 32.351562 46.25 32.648438 C 50.902344 30 54.5 25.800781 56.402344 20.648438 C 49.75 19.800781 42.949219 23.699219 40.699219 30.601562 Z M 40.699219 30.601562 "/>
<path style=" stroke:none;fill-rule:nonzero;fill:rgb(24.705882%,29.019609%,32.941177%);fill-opacity:1;" d="M 40.699219 32.101562 C 40.601562 32.101562 40.5 32.101562 40.398438 32.101562 C 40.300781 32.101562 40.199219 32.050781 40.101562 32 C 40 31.949219 39.898438 31.898438 39.851562 31.851562 C 39.75 31.800781 39.699219 31.75 39.601562 31.648438 C 39.550781 31.601562 39.449219 31.5 39.398438 31.398438 C 39.351562 31.300781 39.300781 31.25 39.25 31.148438 C 39.199219 31.050781 39.199219 30.949219 39.148438 30.851562 C 39.101562 30.75 39.101562 30.648438 39.101562 30.550781 C 39.101562 30.148438 39.25 29.75 39.550781 29.5 C 39.601562 29.449219 39.699219 29.351562 39.800781 29.300781 C 39.898438 29.25 39.949219 29.199219 40.050781 29.148438 C 40.148438 29.101562 40.25 29.101562 40.351562 29.050781 C 40.550781 29 40.75 29 40.949219 29.050781 C 41.050781 29.050781 41.148438 29.101562 41.25 29.148438 C 41.351562 29.199219 41.449219 29.25 41.5 29.300781 C 41.601562 29.351562 41.648438 29.398438 41.75 29.5 C 42.050781 29.800781 42.199219 30.148438 42.199219 30.550781 C 42.199219 30.648438 42.199219 30.75 42.148438 30.851562 C 42.101562 30.949219 42.101562 31.050781 42.050781 31.148438 C 42 31.25 41.949219 31.351562 41.898438 31.398438 C 41.851562 31.5 41.800781 31.550781 41.699219 31.648438 C 41.5 31.949219 41.101562 32.101562 40.699219 32.101562 Z M 48.449219 34.300781 C 47.652344 34.300781 46.851562 34.25 46 34.101562 C 45.199219 34 44.601562 33.199219 44.75 32.398438 C 44.851562 31.601562 45.652344 31 46.449219 31.148438 C 52.402344 32.050781 58.050781 28.800781 60.402344 23.398438 C 59.050781 22.75 57.652344 22.300781 56.199219 22.101562 C 55.402344 22 54.800781 21.25 54.902344 20.398438 C 55 19.601562 55.75 19 56.601562 19.101562 C 58.902344 19.398438 61.101562 20.148438 63.101562 21.398438 C 63.699219 21.75 63.949219 22.5 63.75 23.148438 C 61.550781 29.949219 55.351562 34.300781 48.449219 34.300781 Z M 48.449219 34.300781 "/>
<path style=" stroke:none;fill-rule:nonzero;fill:rgb(10.980392%,73.333335%,35.686275%);fill-opacity:1;" d="M 50.851562 2.800781 C 57.300781 13.148438 52.351562 26.851562 40.75 30.601562 C 34.300781 20.25 39.25 6.601562 50.851562 2.800781 Z M 50.851562 2.800781 "/>
<path style=" stroke:none;fill-rule:nonzero;fill:rgb(100%,100%,100%);fill-opacity:1;" d="M 42.148438 28.300781 C 41.601562 28.300781 41.101562 28 40.800781 27.5 C 40.398438 26.75 40.699219 25.851562 41.449219 25.5 C 44.648438 23.851562 47.101562 21.101562 48.351562 17.648438 C 48.652344 16.851562 49.5 16.449219 50.25 16.75 C 51.050781 17.050781 51.449219 17.898438 51.152344 18.648438 C 49.652344 22.800781 46.699219 26.148438 42.800781 28.101562 C 42.601562 28.25 42.351562 28.300781 42.148438 28.300781 Z M 42.148438 28.300781 "/>
<path style=" stroke:none;fill-rule:nonzero;fill:rgb(24.705882%,29.019609%,32.941177%);fill-opacity:1;" d="M 40.75 32.148438 C 40.25 32.148438 39.75 31.898438 39.5 31.449219 C 36.148438 26.101562 35.5 19.699219 37.648438 13.75 C 39.800781 7.851562 44.449219 3.351562 50.449219 1.398438 C 51.101562 1.199219 51.800781 1.449219 52.199219 2.050781 C 55.550781 7.398438 56.199219 13.800781 54.050781 19.75 C 51.902344 25.699219 47.199219 30.101562 41.199219 32.050781 C 41.050781 32.101562 40.898438 32.148438 40.75 32.148438 Z M 50.199219 4.648438 C 45.652344 6.5 42.148438 10.101562 40.449219 14.75 C 38.75 19.398438 39.101562 24.449219 41.398438 28.75 C 45.949219 26.898438 49.449219 23.300781 51.152344 18.648438 C 52.851562 14 52.5 9 50.199219 4.648438 Z M 50.199219 4.648438 "/>
<path style=" stroke:none;fill-rule:nonzero;fill:rgb(10.980392%,73.333335%,35.686275%);fill-opacity:1;" d="M 30.199219 23.5 C 32.601562 19.851562 30.898438 14.949219 26.800781 13.5 C 24.398438 17.148438 26.101562 22.101562 30.199219 23.5 Z M 30.199219 23.5 "/>
<path style=" stroke:none;fill-rule:nonzero;fill:rgb(10.980392%,73.333335%,35.686275%);fill-opacity:1;" d="M 30.199219 25 C 29.898438 25 29.648438 24.898438 29.398438 24.75 C 28.699219 24.300781 28.5 23.351562 28.949219 22.648438 C 29.851562 21.300781 30.050781 19.648438 29.5 18.101562 C 29 16.550781 27.800781 15.398438 26.300781 14.851562 C 25.5 14.601562 25.101562 13.699219 25.351562 12.949219 C 25.601562 12.148438 26.449219 11.75 27.25 12 C 29.648438 12.851562 31.5 14.699219 32.351562 17.101562 C 33.199219 19.5 32.851562 22.101562 31.449219 24.25 C 31.148438 24.800781 30.699219 25 30.199219 25 Z M 30.199219 25 "/>
<path style=" stroke:none;fill-rule:nonzero;fill:rgb(24.705882%,29.019609%,32.941177%);fill-opacity:1;" d="M 30.199219 25 C 30.050781 25 29.851562 24.949219 29.699219 24.898438 C 27.300781 24.050781 25.449219 22.199219 24.601562 19.800781 C 23.800781 17.398438 24.101562 14.800781 25.5 12.648438 C 25.898438 12.050781 26.601562 11.851562 27.25 12.050781 C 29.800781 12.949219 31.75 15 32.449219 17.601562 C 32.648438 18.398438 32.199219 19.199219 31.398438 19.449219 C 30.601562 19.648438 29.800781 19.199219 29.550781 18.398438 C 29.199219 17.148438 28.449219 16.148438 27.398438 15.449219 C 27.050781 16.550781 27.050781 17.699219 27.398438 18.800781 C 27.898438 20.351562 29.101562 21.5 30.601562 22.050781 C 31.398438 22.300781 31.800781 23.199219 31.550781 23.949219 C 31.398438 24.648438 30.851562 25 30.199219 25 Z M 30.199219 25 "/>
<path style=" stroke:none;fill-rule:nonzero;fill:rgb(24.705882%,29.019609%,32.941177%);fill-opacity:1;" d="M 38.101562 43.300781 C 37.601562 43.300781 37.101562 43.050781 36.851562 42.601562 C 36.398438 41.898438 36.601562 40.949219 37.351562 40.550781 C 38.851562 39.601562 39.898438 38.148438 40.300781 36.398438 C 40.5 35.601562 41.300781 35.101562 42.101562 35.300781 C 42.898438 35.5 43.398438 36.300781 43.199219 37.101562 C 42.601562 39.601562 41.101562 41.75 38.949219 43.101562 C 38.648438 43.25 38.398438 43.300781 38.101562 43.300781 Z M 38.101562 43.300781 "/>
</g>
</svg>
