<?xml version="1.0" encoding="UTF-8"?>
<svg xmlns="http://www.w3.org/2000/svg" xmlns:xlink="http://www.w3.org/1999/xlink" viewBox="0 0 512 512" width="512px" height="512px">
<g id="surface6455138">
<path style=" stroke:none;fill-rule:nonzero;fill:rgb(100%,100%,100%);fill-opacity:1;" d="M 487.203125 323.601562 C 476.003906 312.800781 458.402344 314.003906 447.605469 324.804688 C 388.003906 384.402344 338.402344 403.601562 278.003906 396.003906 C 253.203125 392.804688 240.800781 385.601562 218.402344 375.601562 C 216.402344 374.804688 211.203125 372.003906 205.601562 368.402344 C 189.601562 359.203125 189.601562 336.003906 205.601562 326.804688 L 265.601562 292.003906 C 280.402344 283.601562 286.800781 264.800781 279.203125 249.601562 C 270.800781 232.800781 250.402344 226.800781 234.402344 236.003906 L 96 316.003906 L 56 316.003906 L 56 304.003906 L 4 304.003906 L 4 464.003906 L 56 464.003906 L 56 436.003906 C 56 436.003906 152 476.003906 233.601562 476.003906 C 343.203125 476.003906 434.003906 420.804688 487.203125 364.402344 C 498.003906 352.804688 498.402344 334.402344 487.203125 323.601562 Z M 487.203125 323.601562 "/>
<path style=" stroke:none;fill-rule:nonzero;fill:rgb(26.666668%,29.411766%,32.941177%);fill-opacity:1;" d="M 495.605469 314.800781 C 480.003906 300.003906 455.203125 300.402344 439.203125 316.003906 C 383.601562 371.601562 337.203125 391.203125 279.601562 384.003906 C 260.003906 381.601562 249.601562 376.804688 232.800781 368.804688 C 230.003906 367.601562 226.800781 366.003906 223.601562 364.402344 C 222.800781 364.003906 220.402344 362.804688 211.601562 358.003906 C 206 354.804688 205.601562 349.601562 205.601562 347.601562 C 205.601562 345.601562 206 340.402344 211.601562 337.203125 L 272.003906 302.402344 C 292.402344 290.402344 300.800781 265.203125 290.402344 244.402344 C 284.800781 233.203125 275.601562 225.203125 263.601562 221.601562 C 252.003906 218 239.203125 219.601562 228.800781 225.601562 L 90.402344 305.601562 C 84.800781 308.800781 82.800781 316.402344 86 322.003906 C 89.199219 327.601562 96.800781 329.601562 102.402344 326.402344 L 240.800781 246.402344 C 245.601562 243.601562 251.203125 242.800781 256.800781 244.402344 C 262.003906 246.003906 266.402344 249.601562 268.800781 254.800781 C 273.601562 264.003906 269.601562 276.003906 260.003906 281.601562 L 199.601562 316.402344 C 188.402344 322.804688 181.601562 334.402344 181.601562 347.601562 C 181.601562 360.804688 188.402344 372.402344 199.601562 378.804688 C 208.800781 384.003906 212 385.601562 213.601562 386.402344 C 216.800781 388.003906 220 389.203125 222.800781 390.804688 C 240.800781 399.203125 253.601562 405.203125 276.800781 408.003906 C 342.003906 416.003906 395.601562 394.003906 456.402344 333.203125 C 462.804688 326.804688 473.203125 326.402344 479.203125 332.402344 C 485.203125 338.402344 485.203125 349.203125 478.804688 356.003906 C 454.804688 381.203125 366.402344 464.003906 233.601562 464.003906 C 168 464.003906 91.601562 436.804688 68 428.003906 L 68 304.003906 C 68 297.203125 62.800781 292.003906 56 292.003906 L 16 292.003906 C 9.199219 292.003906 4 297.203125 4 304.003906 C 4 310.800781 9.199219 316.003906 16 316.003906 L 44 316.003906 L 44 452.003906 L 16 452.003906 C 9.199219 452.003906 4 457.203125 4 464.003906 C 4 470.804688 9.199219 476.003906 16 476.003906 L 56 476.003906 C 62.800781 476.003906 68 470.804688 68 464.003906 L 68 453.605469 C 99.601562 465.203125 170 488.003906 233.601562 488.003906 C 329.601562 488.003906 427.605469 444.804688 496.003906 372.402344 C 511.605469 356.402344 511.203125 330.003906 495.605469 314.800781 Z M 495.605469 314.800781 "/>
<path style=" stroke:none;fill-rule:nonzero;fill:rgb(10.980392%,73.333335%,35.686275%);fill-opacity:1;" d="M 325.601562 244.800781 C 349.203125 172.800781 434.003906 142 498.402344 182 C 474.804688 254.003906 390.003906 284.800781 325.601562 244.800781 Z M 325.601562 244.800781 "/>
<path style=" stroke:none;fill-rule:nonzero;fill:rgb(54.509807%,85.882354%,26.274511%);fill-opacity:1;" d="M 325.601562 244.800781 C 339.601562 253.601562 354.804688 258.800781 370.003906 261.203125 C 407.203125 240.003906 436.003906 206.402344 451.203125 165.203125 C 398.003906 158.402344 343.601562 189.601562 325.601562 244.800781 Z M 325.601562 244.800781 "/>
<path style=" stroke:none;fill-rule:nonzero;fill:rgb(24.705882%,29.019609%,32.941177%);fill-opacity:1;" d="M 325.601562 256.800781 C 324.804688 256.800781 324.003906 256.800781 323.203125 256.800781 C 322.402344 256.800781 321.601562 256.402344 320.804688 256.003906 C 320.003906 255.601562 319.203125 255.203125 318.804688 254.800781 C 318.003906 254.402344 317.601562 254.003906 316.800781 253.203125 C 316.402344 252.800781 315.601562 252.003906 315.203125 251.203125 C 314.800781 250.402344 314.402344 250.003906 314.003906 249.203125 C 313.601562 248.402344 313.601562 247.601562 313.203125 246.800781 C 312.800781 246.003906 312.800781 245.203125 312.800781 244.402344 C 312.800781 241.203125 314.003906 238.003906 316.402344 236.003906 C 316.800781 235.601562 317.601562 234.800781 318.402344 234.402344 C 319.203125 234.003906 319.601562 233.601562 320.402344 233.203125 C 321.203125 232.800781 322.003906 232.800781 322.804688 232.402344 C 324.402344 232.003906 326.003906 232.003906 327.601562 232.402344 C 328.402344 232.402344 329.203125 232.800781 330.003906 233.203125 C 330.804688 233.601562 331.601562 234.003906 332.003906 234.402344 C 332.804688 234.800781 333.203125 235.203125 334.003906 236.003906 C 336.402344 238.402344 337.601562 241.203125 337.601562 244.402344 C 337.601562 245.203125 337.601562 246.003906 337.203125 246.800781 C 336.804688 247.601562 336.804688 248.402344 336.402344 249.203125 C 336.003906 250.003906 335.601562 250.800781 335.203125 251.203125 C 334.804688 252.003906 334.402344 252.402344 333.601562 253.203125 C 332.003906 255.601562 328.804688 256.800781 325.601562 256.800781 Z M 387.601562 274.402344 C 381.203125 274.402344 374.804688 274.003906 368.003906 272.800781 C 361.601562 272.003906 356.804688 265.601562 358.003906 259.203125 C 358.804688 252.800781 365.203125 248.003906 371.601562 249.203125 C 419.203125 256.402344 464.402344 230.402344 483.203125 187.203125 C 472.402344 182 461.203125 178.402344 449.605469 176.800781 C 443.203125 176 438.402344 170 439.203125 163.203125 C 440.003906 156.800781 446.003906 152 452.804688 152.800781 C 471.203125 155.203125 488.804688 161.203125 504.804688 171.203125 C 509.605469 174 511.605469 180 510.003906 185.203125 C 492.402344 239.601562 442.804688 274.402344 387.601562 274.402344 Z M 387.601562 274.402344 "/>
<path style=" stroke:none;fill-rule:nonzero;fill:rgb(10.980392%,73.333335%,35.686275%);fill-opacity:1;" d="M 406.804688 22.398438 C 458.402344 105.199219 418.804688 214.800781 326.003906 244.800781 C 274.402344 162 314.003906 52.800781 406.804688 22.398438 Z M 406.804688 22.398438 "/>
<path style=" stroke:none;fill-rule:nonzero;fill:rgb(100%,100%,100%);fill-opacity:1;" d="M 337.203125 226.402344 C 332.804688 226.402344 328.804688 224 326.402344 220 C 323.203125 214 325.601562 206.800781 331.601562 204 C 357.203125 190.800781 376.804688 168.800781 386.804688 141.203125 C 389.203125 134.800781 396.003906 131.601562 402.003906 134 C 408.402344 136.402344 411.605469 143.203125 409.203125 149.203125 C 397.203125 182.402344 373.601562 209.203125 342.402344 224.800781 C 340.804688 226 338.804688 226.402344 337.203125 226.402344 Z M 337.203125 226.402344 "/>
<path style=" stroke:none;fill-rule:nonzero;fill:rgb(24.705882%,29.019609%,32.941177%);fill-opacity:1;" d="M 326.003906 257.203125 C 322.003906 257.203125 318.003906 255.203125 316.003906 251.601562 C 289.203125 208.800781 284.003906 157.601562 301.203125 110 C 318.402344 62.800781 355.601562 26.800781 403.601562 11.199219 C 408.804688 9.601562 414.402344 11.601562 417.605469 16.398438 C 444.402344 59.199219 449.605469 110.402344 432.402344 158 C 415.203125 205.601562 377.601562 240.800781 329.601562 256.402344 C 328.402344 256.800781 327.203125 257.203125 326.003906 257.203125 Z M 401.601562 37.199219 C 365.203125 52 337.203125 80.800781 323.601562 118 C 310.003906 155.203125 312.800781 195.601562 331.203125 230.003906 C 367.601562 215.203125 395.601562 186.402344 409.203125 149.203125 C 422.804688 112 420.003906 72 401.601562 37.199219 Z M 401.601562 37.199219 "/>
<path style=" stroke:none;fill-rule:nonzero;fill:rgb(10.980392%,73.333335%,35.686275%);fill-opacity:1;" d="M 241.601562 188 C 260.800781 158.800781 247.203125 119.601562 214.402344 108 C 195.203125 137.203125 208.800781 176.800781 241.601562 188 Z M 241.601562 188 "/>
<path style=" stroke:none;fill-rule:nonzero;fill:rgb(10.980392%,73.333335%,35.686275%);fill-opacity:1;" d="M 241.601562 200 C 239.203125 200 237.203125 199.203125 235.203125 198 C 229.601562 194.402344 228.003906 186.800781 231.601562 181.203125 C 238.800781 170.402344 240.402344 157.203125 236.003906 144.800781 C 232.003906 132.402344 222.402344 123.199219 210.402344 118.800781 C 204 116.800781 200.800781 109.601562 202.800781 103.601562 C 204.800781 97.199219 211.601562 94 218 96 C 237.203125 102.800781 252.003906 117.601562 258.800781 136.800781 C 265.601562 156 262.800781 176.800781 251.601562 194 C 249.203125 198.402344 245.601562 200 241.601562 200 Z M 241.601562 200 "/>
<path style=" stroke:none;fill-rule:nonzero;fill:rgb(24.705882%,29.019609%,32.941177%);fill-opacity:1;" d="M 241.601562 200 C 240.402344 200 238.800781 199.601562 237.601562 199.203125 C 218.402344 192.402344 203.601562 177.601562 196.800781 158.402344 C 190.402344 139.203125 192.800781 118.402344 204 101.199219 C 207.203125 96.402344 212.800781 94.800781 218 96.402344 C 238.402344 103.601562 254.003906 120 259.601562 140.800781 C 261.203125 147.203125 257.601562 153.601562 251.203125 155.601562 C 244.800781 157.203125 238.402344 153.601562 236.402344 147.203125 C 233.601562 137.203125 227.601562 129.199219 219.203125 123.601562 C 216.402344 132.402344 216.402344 141.601562 219.203125 150.402344 C 223.203125 162.800781 232.800781 172 244.800781 176.402344 C 251.203125 178.402344 254.402344 185.601562 252.402344 191.601562 C 251.203125 197.203125 246.800781 200 241.601562 200 Z M 241.601562 200 "/>
<path style=" stroke:none;fill-rule:nonzero;fill:rgb(24.705882%,29.019609%,32.941177%);fill-opacity:1;" d="M 304.800781 346.402344 C 300.800781 346.402344 296.800781 344.402344 294.800781 340.804688 C 291.203125 335.203125 292.800781 327.601562 298.800781 324.402344 C 310.800781 316.800781 319.203125 305.203125 322.402344 291.203125 C 324.003906 284.800781 330.402344 280.800781 336.804688 282.402344 C 343.203125 284.003906 347.203125 290.402344 345.601562 296.800781 C 340.804688 316.800781 328.804688 334.003906 311.601562 344.804688 C 309.203125 346.003906 307.203125 346.402344 304.800781 346.402344 Z M 304.800781 346.402344 "/>
</g>
</svg>
