<?xml version="1.0" encoding="UTF-8"?>
<svg xmlns="http://www.w3.org/2000/svg" xmlns:xlink="http://www.w3.org/1999/xlink" viewBox="0 0 256 256" width="256px" height="256px">
<g id="surface98562776">
<path style=" stroke:none;fill-rule:nonzero;fill:rgb(100%,100%,100%);fill-opacity:1;" d="M 243.601562 161.800781 C 238.003906 156.402344 229.203125 157 223.800781 162.402344 C 194 192.203125 169.203125 201.800781 139 198 C 126.601562 196.402344 120.402344 192.800781 109.199219 187.800781 C 108.199219 187.402344 105.601562 186 102.800781 184.203125 C 94.800781 179.601562 94.800781 168 102.800781 163.402344 L 132.800781 146 C 140.203125 141.800781 143.402344 132.402344 139.601562 124.800781 C 135.402344 116.402344 125.199219 113.402344 117.199219 118 L 48 158 L 28 158 L 28 152 L 2 152 L 2 232.003906 L 28 232.003906 L 28 218 C 28 218 76 238.003906 116.800781 238.003906 C 171.601562 238.003906 217 210.402344 243.601562 182.203125 C 249.003906 176.402344 249.203125 167.203125 243.601562 161.800781 Z M 243.601562 161.800781 "/>
<path style=" stroke:none;fill-rule:nonzero;fill:rgb(26.666668%,29.411766%,32.941177%);fill-opacity:1;" d="M 247.800781 157.402344 C 240.003906 150 227.601562 150.203125 219.601562 158 C 191.800781 185.800781 168.601562 195.601562 139.800781 192 C 130 190.800781 124.800781 188.402344 116.402344 184.402344 C 115 183.800781 113.402344 183 111.800781 182.203125 C 111.402344 182 110.199219 181.402344 105.800781 179 C 103 177.402344 102.800781 174.800781 102.800781 173.800781 C 102.800781 172.800781 103 170.203125 105.800781 168.601562 L 136 151.203125 C 146.203125 145.203125 150.402344 132.601562 145.203125 122.199219 C 142.402344 116.601562 137.800781 112.601562 131.800781 110.800781 C 126 109 119.601562 109.800781 114.402344 112.800781 L 45.199219 152.800781 C 42.398438 154.402344 41.398438 158.203125 43 161 C 44.601562 163.800781 48.402344 164.800781 51.199219 163.203125 L 120.402344 123.199219 C 122.800781 121.800781 125.601562 121.402344 128.402344 122.199219 C 131 123 133.199219 124.800781 134.402344 127.402344 C 136.800781 132 134.800781 138 130 140.800781 L 99.800781 158.203125 C 94.199219 161.402344 90.800781 167.203125 90.800781 173.800781 C 90.800781 180.402344 94.199219 186.203125 99.800781 189.402344 C 104.402344 192 106 192.800781 106.800781 193.203125 C 108.402344 194 110 194.601562 111.402344 195.402344 C 120.402344 199.601562 126.800781 202.601562 138.402344 204 C 171 208 197.800781 197 228.203125 166.601562 C 231.402344 163.402344 236.601562 163.203125 239.601562 166.203125 C 242.601562 169.203125 242.601562 174.601562 239.402344 178 C 227.402344 190.601562 183.203125 232.003906 116.800781 232.003906 C 84 232.003906 45.800781 218.402344 34 214 L 34 152 C 34 148.601562 31.398438 146 28 146 L 8 146 C 4.601562 146 2 148.601562 2 152 C 2 155.402344 4.601562 158 8 158 L 22 158 L 22 226 L 8 226 C 4.601562 226 2 228.601562 2 232.003906 C 2 235.402344 4.601562 238.003906 8 238.003906 L 28 238.003906 C 31.398438 238.003906 34 235.402344 34 232.003906 L 34 226.800781 C 49.800781 232.601562 85 244.003906 116.800781 244.003906 C 164.800781 244.003906 213.800781 222.402344 248.003906 186.203125 C 255.800781 178.203125 255.601562 165 247.800781 157.402344 Z M 247.800781 157.402344 "/>
<path style=" stroke:none;fill-rule:nonzero;fill:rgb(10.980392%,73.333335%,35.686275%);fill-opacity:1;" d="M 162.800781 122.402344 C 174.601562 86.402344 217 71 249.203125 91 C 237.402344 127 195 142.402344 162.800781 122.402344 Z M 162.800781 122.402344 "/>
<path style=" stroke:none;fill-rule:nonzero;fill:rgb(54.509807%,85.882354%,26.274511%);fill-opacity:1;" d="M 162.800781 122.402344 C 169.800781 126.800781 177.402344 129.402344 185 130.601562 C 203.601562 120 218 103.199219 225.601562 82.601562 C 199 79.199219 171.800781 94.800781 162.800781 122.402344 Z M 162.800781 122.402344 "/>
<path style=" stroke:none;fill-rule:nonzero;fill:rgb(24.705882%,29.019609%,32.941177%);fill-opacity:1;" d="M 162.800781 128.402344 C 162.402344 128.402344 162 128.402344 161.601562 128.402344 C 161.203125 128.402344 160.800781 128.199219 160.402344 128 C 160 127.800781 159.601562 127.601562 159.402344 127.402344 C 159 127.199219 158.800781 127 158.402344 126.601562 C 158.203125 126.402344 157.800781 126 157.601562 125.601562 C 157.402344 125.199219 157.203125 125 157 124.601562 C 156.800781 124.199219 156.800781 123.800781 156.601562 123.402344 C 156.402344 123 156.402344 122.601562 156.402344 122.199219 C 156.402344 120.601562 157 119 158.203125 118 C 158.402344 117.800781 158.800781 117.402344 159.203125 117.199219 C 159.601562 117 159.800781 116.800781 160.203125 116.601562 C 160.601562 116.402344 161 116.402344 161.402344 116.199219 C 162.203125 116 163 116 163.800781 116.199219 C 164.203125 116.199219 164.601562 116.402344 165 116.601562 C 165.402344 116.800781 165.800781 117 166 117.199219 C 166.402344 117.402344 166.601562 117.601562 167 118 C 168.203125 119.199219 168.800781 120.601562 168.800781 122.199219 C 168.800781 122.601562 168.800781 123 168.601562 123.402344 C 168.402344 123.800781 168.402344 124.199219 168.203125 124.601562 C 168 125 167.800781 125.402344 167.601562 125.601562 C 167.402344 126 167.203125 126.199219 166.800781 126.601562 C 166 127.800781 164.402344 128.402344 162.800781 128.402344 Z M 193.800781 137.203125 C 190.601562 137.203125 187.402344 137 184 136.402344 C 180.800781 136 178.402344 132.800781 179 129.601562 C 179.402344 126.402344 182.601562 124 185.800781 124.601562 C 209.601562 128.199219 232.203125 115.199219 241.601562 93.601562 C 236.203125 91 230.601562 89.199219 224.800781 88.402344 C 221.601562 88 219.203125 85 219.601562 81.601562 C 220 78.402344 223 76 226.402344 76.402344 C 235.601562 77.601562 244.402344 80.601562 252.402344 85.601562 C 254.800781 87 255.800781 90 255.003906 92.601562 C 246.203125 119.800781 221.402344 137.203125 193.800781 137.203125 Z M 193.800781 137.203125 "/>
<path style=" stroke:none;fill-rule:nonzero;fill:rgb(10.980392%,73.333335%,35.686275%);fill-opacity:1;" d="M 203.402344 11.199219 C 229.203125 52.601562 209.402344 107.402344 163 122.402344 C 137.203125 81 157 26.398438 203.402344 11.199219 Z M 203.402344 11.199219 "/>
<path style=" stroke:none;fill-rule:nonzero;fill:rgb(100%,100%,100%);fill-opacity:1;" d="M 168.601562 113.199219 C 166.402344 113.199219 164.402344 112 163.203125 110 C 161.601562 107 162.800781 103.402344 165.800781 102 C 178.601562 95.402344 188.402344 84.402344 193.402344 70.601562 C 194.601562 67.402344 198 65.800781 201 67 C 204.203125 68.199219 205.800781 71.601562 204.601562 74.601562 C 198.601562 91.199219 186.800781 104.601562 171.203125 112.402344 C 170.402344 113 169.402344 113.199219 168.601562 113.199219 Z M 168.601562 113.199219 "/>
<path style=" stroke:none;fill-rule:nonzero;fill:rgb(24.705882%,29.019609%,32.941177%);fill-opacity:1;" d="M 163 128.601562 C 161 128.601562 159 127.601562 158 125.800781 C 144.601562 104.402344 142 78.800781 150.601562 55 C 159.203125 31.398438 177.800781 13.398438 201.800781 5.601562 C 204.402344 4.800781 207.203125 5.800781 208.800781 8.199219 C 222.203125 29.601562 224.800781 55.199219 216.203125 79 C 207.601562 102.800781 188.800781 120.402344 164.800781 128.199219 C 164.203125 128.402344 163.601562 128.601562 163 128.601562 Z M 200.800781 18.601562 C 182.601562 26 168.601562 40.398438 161.800781 59 C 155 77.601562 156.402344 97.800781 165.601562 115 C 183.800781 107.601562 197.800781 93.199219 204.601562 74.601562 C 211.402344 56 210 36 200.800781 18.601562 Z M 200.800781 18.601562 "/>
<path style=" stroke:none;fill-rule:nonzero;fill:rgb(10.980392%,73.333335%,35.686275%);fill-opacity:1;" d="M 120.800781 94 C 130.402344 79.402344 123.601562 59.800781 107.199219 54 C 97.601562 68.601562 104.402344 88.402344 120.800781 94 Z M 120.800781 94 "/>
<path style=" stroke:none;fill-rule:nonzero;fill:rgb(10.980392%,73.333335%,35.686275%);fill-opacity:1;" d="M 120.800781 100 C 119.601562 100 118.601562 99.601562 117.601562 99 C 114.800781 97.199219 114 93.402344 115.800781 90.601562 C 119.402344 85.199219 120.199219 78.601562 118 72.402344 C 116 66.199219 111.199219 61.601562 105.199219 59.402344 C 102 58.402344 100.402344 54.800781 101.402344 51.800781 C 102.402344 48.601562 105.800781 47 109 48 C 118.601562 51.402344 126 58.800781 129.402344 68.402344 C 132.800781 78 131.402344 88.402344 125.800781 97 C 124.601562 99.199219 122.800781 100 120.800781 100 Z M 120.800781 100 "/>
<path style=" stroke:none;fill-rule:nonzero;fill:rgb(24.705882%,29.019609%,32.941177%);fill-opacity:1;" d="M 120.800781 100 C 120.199219 100 119.402344 99.800781 118.800781 99.601562 C 109.199219 96.199219 101.800781 88.800781 98.402344 79.199219 C 95.199219 69.601562 96.402344 59.199219 102 50.601562 C 103.601562 48.199219 106.402344 47.402344 109 48.199219 C 119.199219 51.800781 127 60 129.800781 70.402344 C 130.601562 73.601562 128.800781 76.800781 125.601562 77.800781 C 122.402344 78.601562 119.199219 76.800781 118.199219 73.601562 C 116.800781 68.601562 113.800781 64.601562 109.601562 61.800781 C 108.199219 66.199219 108.199219 70.800781 109.601562 75.199219 C 111.601562 81.402344 116.402344 86 122.402344 88.199219 C 125.601562 89.199219 127.199219 92.800781 126.199219 95.800781 C 125.601562 98.601562 123.402344 100 120.800781 100 Z M 120.800781 100 "/>
<path style=" stroke:none;fill-rule:nonzero;fill:rgb(24.705882%,29.019609%,32.941177%);fill-opacity:1;" d="M 152.402344 173.203125 C 150.402344 173.203125 148.402344 172.203125 147.402344 170.402344 C 145.601562 167.601562 146.402344 163.800781 149.402344 162.203125 C 155.402344 158.402344 159.601562 152.601562 161.203125 145.601562 C 162 142.402344 165.203125 140.402344 168.402344 141.203125 C 171.601562 142 173.601562 145.203125 172.800781 148.402344 C 170.402344 158.402344 164.402344 167 155.800781 172.402344 C 154.601562 173 153.601562 173.203125 152.402344 173.203125 Z M 152.402344 173.203125 "/>
</g>
</svg>
