<svg xmlns="http://www.w3.org/2000/svg" viewBox="0 0 500 500"><g id="freepik--background-complete--inject-7"><path d="M414.79,381.56l13.36-.28,6.58-.11c2.19-.05,4.36,0,6.54-.06l-.44.45-.06-11.19.5.5L428,370.8c-4.41,0-8.82-.11-13.24-.16l.28-.27c0,1.83-.09,3.67-.14,5.53Zm0,0-.14-5.54c0-1.87-.11-3.75-.13-5.65v-.27h.27c4.42,0,8.83-.15,13.24-.16l13.24-.06h.5v.5l0,11.19V382h-.45c-2.23,0-4.47,0-6.69-.05l-6.66-.11Z" style="fill:#ebebeb"></path><path d="M429.56,395.67l13.36-.28,6.58-.11c2.19,0,4.36,0,6.54-.06l-.44.45-.05-11.19.49.5-13.24-.07c-4.41,0-8.82-.11-13.24-.16l.28-.27c0,1.83-.09,3.67-.13,5.53Zm0,0-.14-5.54c0-1.87-.11-3.75-.13-5.65v-.27h.27c4.42-.05,8.83-.15,13.24-.16L456,384h.51v.5l-.05,11.19v.45H456c-2.23,0-4.46,0-6.69-.05l-6.66-.11Z" style="fill:#ebebeb"></path><rect x="400.02" y="384.48" width="26.48" height="11.19" transform="translate(826.52 780.15) rotate(180)" style="fill:#ebebeb"></rect><path d="M312.24,127l13.35-.27,6.58-.12c2.19,0,4.37,0,6.55-.05l-.45.44,0-11.19.5.5-13.24-.06c-4.42,0-8.83-.11-13.24-.16l.27-.28c0,1.84-.09,3.68-.13,5.54Zm0,0-.15-5.53c0-1.87-.11-3.76-.13-5.66v-.27h.28c4.41,0,8.82-.16,13.24-.16l13.24-.07h.5v.5L339.16,127v.45h-.44c-2.23,0-4.47,0-6.7-.06l-6.66-.11Z" style="fill:#ebebeb"></path><path d="M327,141.12l13.35-.27,6.58-.12c2.19,0,4.37,0,6.55,0l-.45.44L353,129.93l.5.5-13.24-.06c-4.41,0-8.83-.11-13.24-.16l.27-.28c0,1.84-.08,3.68-.13,5.54Zm0,0-.14-5.53c-.05-1.87-.12-3.76-.13-5.66v-.27H327c4.41,0,8.83-.16,13.24-.16l13.24-.07h.5v.5l-.06,11.19v.45h-.44c-2.23,0-4.47,0-6.7-.06l-6.66-.11Z" style="fill:#ebebeb"></path><rect x="297.46" y="129.93" width="26.48" height="11.19" transform="translate(621.41 271.06) rotate(180)" style="fill:#ebebeb"></rect><rect x="58.73" y="384.48" width="26.48" height="11.19" transform="translate(143.93 780.15) rotate(180)" style="fill:#ebebeb"></rect><rect x="58.73" y="43.24" width="26.48" height="11.19" transform="translate(143.93 97.68) rotate(180)" style="fill:#ebebeb"></rect><path d="M44,68.54l13.35-.28,6.58-.11c2.19,0,4.36,0,6.55-.05l-.45.44,0-11.19.5.5L57.2,57.79c-4.42,0-8.83-.11-13.24-.16l.27-.28c0,1.83-.09,3.68-.13,5.54Zm0,0L43.81,63c0-1.87-.11-3.76-.13-5.66v-.27H44c4.41,0,8.82-.16,13.24-.16l13.24-.07h.5v.5l-.06,11.19V69h-.44c-2.24,0-4.47,0-6.7-.06l-6.66-.11Z" style="fill:#ebebeb"></path><path d="M429.56,54.45l13.36-.28,6.58-.12c2.19,0,4.36,0,6.54,0l-.44.45-.05-11.19.49.49-13.24-.06c-4.41,0-8.82-.11-13.24-.16l.28-.27c0,1.83-.09,3.67-.13,5.53Zm0,0-.14-5.54c0-1.87-.11-3.76-.13-5.65V43h.27c4.42,0,8.83-.16,13.24-.16L456,42.76h.51v.51l-.05,11.19v.44H456c-2.23,0-4.46,0-6.69,0l-6.66-.12Z" style="fill:#ebebeb"></path><rect x="255.8" y="343.09" width="26.48" height="11.19" style="fill:#ebebeb"></rect><path d="M267.51,329l-13.36.28-6.57.11c-2.19.05-4.37,0-6.55.06l.45-.45.05,11.19-.5-.5,13.24.06c4.41,0,8.83.12,13.24.17l-.27.27c0-1.83.08-3.67.13-5.54Zm0,0,.14,5.54c.05,1.86.11,3.75.13,5.65v.27h-.28c-4.41.05-8.83.16-13.24.17l-13.24.06h-.5v-.5l.05-11.19v-.45H241c2.23,0,4.47,0,6.69,0l6.67.11Z" style="fill:#ebebeb"></path><path d="M404.41,237.93H160.64V53.77H404.41Zm-242.77-1H403.41V54.77H161.64Z" style="fill:#ebebeb"></path><path d="M169.75,58.93a2.31,2.31,0,1,1-2.31-2.31A2.3,2.3,0,0,1,169.75,58.93Z" style="fill:#a6a6a6"></path><path d="M179.18,58.93a2.31,2.31,0,1,1-2.31-2.31A2.31,2.31,0,0,1,179.18,58.93Z" style="fill:#ebebeb"></path><path d="M188.6,58.93a2.31,2.31,0,1,1-2.31-2.31A2.3,2.3,0,0,1,188.6,58.93Z" style="fill:#407BFF"></path><rect x="161.14" y="62.95" width="242.77" height="1" style="fill:#ebebeb"></rect><circle cx="75.8" cy="97.03" r="35.78" transform="translate(-31.66 157.14) rotate(-81.22)" style="fill:#ebebeb"></circle><circle cx="77.44" cy="97.82" r="34.14" style="fill:#dbdbdb"></circle><circle cx="77.44" cy="97.82" r="31.99" style="fill:#fff"></circle><path d="M108.7,91c-14.56,8.82-38.5,23.3-51.88,31.24a31.93,31.93,0,0,1-8.74-11.76l44.25-41A32,32,0,0,1,108.7,91Z" style="fill:#ebebeb;opacity:0.5"></path><path d="M109.41,98.94a32.06,32.06,0,0,1-2.12,10.4L67.4,128.2a31.73,31.73,0,0,1-5-2.16C74.41,119.07,96.43,106.4,109.41,98.94Z" style="fill:#ebebeb;opacity:0.5"></path><rect x="77.13" y="68.16" width="0.62" height="4.85" style="fill:#c7c7c7"></rect><rect x="63.51" y="71.81" width="0.62" height="4.85" transform="translate(-28.56 41.85) rotate(-30)" style="fill:#c7c7c7"></rect><rect x="53.54" y="81.78" width="0.62" height="4.85" transform="translate(-46 88.73) rotate(-60)" style="fill:#c7c7c7"></rect><rect x="47.78" y="97.52" width="4.85" height="0.62" style="fill:#c7c7c7"></rect><rect x="51.43" y="111.14" width="4.85" height="0.62" transform="matrix(0.87, -0.5, 0.5, 0.87, -48.52, 41.88)" style="fill:#c7c7c7"></rect><rect x="61.4" y="121.11" width="4.85" height="0.62" transform="translate(-73.24 116.05) rotate(-60.03)" style="fill:#c7c7c7"></rect><rect x="77.13" y="122.64" width="0.62" height="4.85" style="fill:#c7c7c7"></rect><rect x="90.75" y="118.99" width="0.62" height="4.85" transform="translate(-48.51 61.8) rotate(-30)" style="fill:#c7c7c7"></rect><rect x="100.72" y="109.02" width="0.62" height="4.85" transform="translate(-46 143.21) rotate(-60)" style="fill:#c7c7c7"></rect><rect x="102.26" y="97.52" width="4.85" height="0.62" style="fill:#c7c7c7"></rect><rect x="98.61" y="83.89" width="4.85" height="0.62" transform="translate(-28.57 61.8) rotate(-30)" style="fill:#c7c7c7"></rect><rect x="88.64" y="73.92" width="4.85" height="0.62" transform="translate(-18.74 116.03) rotate(-60.03)" style="fill:#c7c7c7"></rect><polygon points="77.91 70.36 78.96 99.98 75.92 99.94 77.08 70.34 77.91 70.36" style="fill:#c7c7c7"></polygon><polygon points="96.36 87.49 76.43 100.22 74.98 97.55 95.97 86.77 96.36 87.49" style="fill:#a6a6a6"></polygon><path d="M78.48,97.82a1,1,0,1,1-2.07,0,1,1,0,0,1,2.07,0Z" style="fill:#c7c7c7"></path><rect x="376.98" y="88.63" width="44.61" height="54.12" style="fill:#ebebeb"></rect><rect x="382.07" y="93.57" width="34.42" height="44.24" style="fill:#fff"></rect><rect x="382.07" y="93.57" width="1.34" height="44.24" style="fill:#dbdbdb"></rect><rect x="421.59" y="88.63" width="1.34" height="54.12" style="fill:#dbdbdb"></rect><rect x="393.61" y="99.67" width="8.12" height="24.18" style="fill:#dbdbdb"></rect><path d="M412.21,128.48H389.57V115.64h22.64Zm-21.64-1h20.64V116.64H390.57Z" style="fill:#ebebeb"></path><rect x="414.02" y="155.72" width="44.61" height="54.12" style="fill:#ebebeb"></rect><rect x="419.12" y="160.66" width="34.42" height="44.24" style="fill:#fff"></rect><rect x="419.12" y="160.66" width="1.34" height="44.24" style="fill:#dbdbdb"></rect><rect x="458.64" y="155.72" width="1.34" height="54.12" style="fill:#dbdbdb"></rect><rect x="433" y="172.09" width="6.95" height="17.58" style="fill:#ebebeb"></rect><path d="M447.77,195.4H428.09V182.28h19.68Zm-18.68-1h17.68V183.28H429.09Z" style="fill:#dbdbdb"></path><polygon points="43.78 381.44 160.54 381.44 164.3 307.35 40.02 307.35 43.78 381.44" style="fill:#ebebeb"></polygon><path d="M152,341.31H49.11L47.69,315.5h106Zm-102-1h101l1.53-23.81H48.74Z" style="fill:#dbdbdb"></path><path d="M150.63,370.9H52.06L50.9,347.59H152.09ZM53,369.9h96.68L151,348.59H52Z" style="fill:#dbdbdb"></path><path d="M112.43,331.24H90.55L89.74,325h23.5Zm-21-1h20.12l.56-4.29H90.88Z" style="fill:#dbdbdb"></path><path d="M112.43,362.39H90.55l-.81-6.29h23.5Zm-21-1h20.12l.56-4.29H90.88Z" style="fill:#dbdbdb"></path><polygon points="59.97 381.44 58.84 389.51 56.55 405.73 52.09 405.73 52.09 381.44 59.97 381.44" style="fill:#ebebeb"></polygon><polygon points="59.97 381.44 58.84 389.51 52.09 389.51 52.09 381.44 59.97 381.44" style="fill:#dbdbdb"></polygon><polygon points="144.35 381.44 145.48 389.51 147.76 405.73 152.22 405.73 152.22 381.44 144.35 381.44" style="fill:#ebebeb"></polygon><polygon points="144.35 381.44 145.48 389.51 152.22 389.51 152.22 381.44 144.35 381.44" style="fill:#dbdbdb"></polygon></g><g id="freepik--Screen--inject-7"><rect x="86.74" y="74" width="326.52" height="218.97" style="fill:#455a64"></rect><rect x="86.74" y="74" width="326.52" height="9.08" style="fill:#263238"></rect><path d="M94,78.54a2.25,2.25,0,1,1-2.25-2.25A2.25,2.25,0,0,1,94,78.54Z" style="fill:#c7c7c7"></path><path d="M103.15,78.54a2.26,2.26,0,1,1-2.26-2.25A2.26,2.26,0,0,1,103.15,78.54Z" style="fill:#fff"></path><path d="M112.34,78.54a2.26,2.26,0,1,1-2.25-2.25A2.25,2.25,0,0,1,112.34,78.54Z" style="fill:#407BFF"></path><rect x="138.14" y="202.07" width="223.73" height="18.19" style="fill:#fff"></rect><rect x="143.4" y="206.28" width="130.17" height="9.77" style="fill:#407BFF"></rect><polygon points="157.46 216.05 150.79 216.05 143.4 206.28 150.06 206.28 157.46 216.05" style="fill:#fff;opacity:0.2"></polygon><polygon points="171.51 216.05 164.85 216.05 157.46 206.28 164.12 206.28 171.51 216.05" style="fill:#fff;opacity:0.2"></polygon><polygon points="185.57 216.05 178.9 216.05 171.51 206.28 178.18 206.28 185.57 216.05" style="fill:#fff;opacity:0.2"></polygon><polygon points="199.62 216.05 192.96 216.05 185.57 206.28 192.23 206.28 199.62 216.05" style="fill:#fff;opacity:0.2"></polygon><polygon points="213.68 216.05 207.01 216.05 199.62 206.28 206.29 206.28 213.68 216.05" style="fill:#fff;opacity:0.2"></polygon><polygon points="227.74 216.05 221.07 216.05 213.68 206.28 220.35 206.28 227.74 216.05" style="fill:#fff;opacity:0.2"></polygon><polygon points="241.79 216.05 235.13 216.05 227.74 206.28 234.4 206.28 241.79 216.05" style="fill:#fff;opacity:0.2"></polygon><polygon points="255.85 216.05 249.18 216.05 241.79 206.28 248.46 206.28 255.85 216.05" style="fill:#fff;opacity:0.2"></polygon><polygon points="269.9 216.05 263.24 216.05 255.85 206.28 262.51 206.28 269.9 216.05" style="fill:#fff;opacity:0.2"></polygon><polygon points="273.58 206.28 273.58 211.13 269.9 206.28 273.58 206.28" style="fill:#fff;opacity:0.2"></polygon><path d="M255.2,139.76a3.81,3.81,0,1,1-3.81-3.81A3.81,3.81,0,0,1,255.2,139.76Z" style="fill:#407BFF"></path><circle cx="235.75" cy="145.89" r="3.35" style="fill:#407BFF"></circle><path d="M229,158.28a3,3,0,1,1-3,3A3,3,0,0,1,229,158.28Z" style="fill:#407BFF"></path><path d="M233.37,175.12a2.53,2.53,0,1,1,0,3.59A2.53,2.53,0,0,1,233.37,175.12Z" style="fill:#407BFF"></path><circle cx="250.55" cy="183.63" r="2" style="fill:#407BFF"></circle><path d="M265.16,178.53a1.45,1.45,0,0,1,0-2.06,1.47,1.47,0,0,1,2.06,0,1.46,1.46,0,1,1-2.06,2.06Z" style="fill:#407BFF"></path><path d="M272.91,163.17a1.06,1.06,0,1,1,1.06-1.06A1.05,1.05,0,0,1,272.91,163.17Z" style="fill:#407BFF"></path><circle cx="266.78" cy="146.48" r="0.75" style="fill:#407BFF"></circle><path d="M219,238.17l1.24-7a.81.81,0,0,1,.78-.66.53.53,0,0,1,.54.66l-1.13,6.38h3.24a.54.54,0,0,1,.55.66.84.84,0,0,1-.79.67h-3.89A.54.54,0,0,1,219,238.17Z" style="fill:#fff"></path><path d="M226.36,237.63a3.67,3.67,0,0,1-.64-2.94,5.31,5.31,0,0,1,1.68-2.94,4.63,4.63,0,0,1,3-1.24,3.24,3.24,0,0,1,2.61,1.24,3.77,3.77,0,0,1,.62,2.94,5.07,5.07,0,0,1-1.66,2.94,4.61,4.61,0,0,1-3,1.24A3.15,3.15,0,0,1,226.36,237.63Zm.69-2.94a2.65,2.65,0,0,0,.43,2.05,2.15,2.15,0,0,0,1.72.82,3.16,3.16,0,0,0,2-.82,3.79,3.79,0,0,0,1.15-2.05,2.58,2.58,0,0,0-.43-2,2.15,2.15,0,0,0-1.72-.82,3.07,3.07,0,0,0-2,.82A3.55,3.55,0,0,0,227.05,234.69Z" style="fill:#fff"></path><path d="M236.33,238.43a.79.79,0,0,1-.69.43.85.85,0,0,1-.23,0,.59.59,0,0,1-.23-.86l3.88-7a.82.82,0,0,1,.71-.43.54.54,0,0,1,.56.43l1.4,7a.8.8,0,0,1-.54.86.93.93,0,0,1-.24,0,.53.53,0,0,1-.54-.43l-.31-1.54h-2.91Zm3.51-2.85-.51-2.57-1.41,2.57Z" style="fill:#fff"></path><path d="M243.37,238.19l1.23-7a.83.83,0,0,1,.79-.66h1.41a3.4,3.4,0,0,1,3.44,4.18,5.21,5.21,0,0,1-4.92,4.18h-1.41A.54.54,0,0,1,243.37,238.19Zm3.19-6.38h-.75l-1,5.73h.76a3.54,3.54,0,0,0,3.35-2.86A2.34,2.34,0,0,0,246.56,231.81Z" style="fill:#fff"></path><path d="M252.59,238.87a.54.54,0,0,1-.55-.65l1.24-7.05a.84.84,0,0,1,.78-.66.54.54,0,0,1,.55.66l-1.24,7.05A.83.83,0,0,1,252.59,238.87Z" style="fill:#fff"></path><path d="M256.84,231.19a.84.84,0,0,1,.39-.56.59.59,0,0,1,.88.14l2.94,5.4.87-5a.84.84,0,0,1,.78-.66.54.54,0,0,1,.55.66l-1.24,7a.8.8,0,0,1-.78.65.52.52,0,0,1-.45-.22.26.26,0,0,1,0-.09l-2.92-5.35-.88,5a.8.8,0,0,1-.78.65.53.53,0,0,1-.54-.65Z" style="fill:#fff"></path><path d="M265,234.67a5.27,5.27,0,0,1,5-4.18,3.64,3.64,0,0,1,2.5.9.63.63,0,0,1-.05.92.68.68,0,0,1-.94.12,2.6,2.6,0,0,0-1.75-.63,3.5,3.5,0,0,0-2.24.85,3.41,3.41,0,0,0-1.21,2,2.4,2.4,0,0,0,.5,2,2.51,2.51,0,0,0,1.95.84,3.37,3.37,0,0,0,1.67-.45l.29-1.59H269.1a.54.54,0,0,1-.54-.66.8.8,0,0,1,.78-.65h2.3a.53.53,0,0,1,.55.65l-.45,2.58a1.27,1.27,0,0,1-.06.18.3.3,0,0,1,0,.08h0a.72.72,0,0,1-.25.27,5.08,5.08,0,0,1-2.81.91h0A3.46,3.46,0,0,1,265,234.67Z" style="fill:#fff"></path><path d="M274.89,238.86a.62.62,0,0,1-.6-.59.61.61,0,0,1,.6-.59.58.58,0,0,1,.58.59A.6.6,0,0,1,274.89,238.86Z" style="fill:#fff"></path><path d="M277.64,238.86a.62.62,0,0,1-.6-.59.61.61,0,0,1,.6-.59.58.58,0,0,1,.58.59A.6.6,0,0,1,277.64,238.86Z" style="fill:#fff"></path><path d="M280.39,238.86a.62.62,0,0,1-.6-.59.61.61,0,0,1,.6-.59.58.58,0,0,1,.58.59A.6.6,0,0,1,280.39,238.86Z" style="fill:#fff"></path></g><g id="freepik--Floor--inject-7"><polygon points="459.98 405.73 407.49 405.97 354.99 406.06 250 406.23 145.01 406.06 92.52 405.97 40.02 405.73 92.52 405.49 145.01 405.4 250 405.23 354.99 405.4 407.49 405.49 459.98 405.73" style="fill:#263238"></polygon></g><g id="freepik--Character--inject-7"><path d="M438.4,466.35c-.9-2.93-49.17-70.57-52.64-72-1.32-.54-3.87-2.59-16.05,5.56L344,377.4,329.45,425,393,452.13s30.07,17.63,34,18.77S439.29,469.27,438.4,466.35Z" style="fill:#eb9481"></path><path d="M438.4,466.35c-.9-2.93-49.17-70.57-52.64-72-1.32-.54-3.87-2.59-16.05,5.56L344,377.4,329.45,425,393,452.13s30.07,17.63,34,18.77S439.29,469.27,438.4,466.35Z" style="fill:#eb9481"></path><path d="M367.11,441.09l25.89,11s30.07,17.62,34,18.77,12.25-1.63,11.36-4.55-49.17-70.57-52.64-72c-1.32-.55-3.87-2.59-16.05,5.56L367,397.54Z" style="fill:#407BFF"></path><path d="M372.8,441.27a16.2,16.2,0,0,0-2.29-2.59,15.36,15.36,0,0,0-2.76-2.08,14.91,14.91,0,0,0,2.29,2.59A15.36,15.36,0,0,0,372.8,441.27Z" style="fill:#263238"></path><path d="M372.85,436.76a14.55,14.55,0,0,0-2.29-2.59,15.41,15.41,0,0,0-2.76-2.09,17.44,17.44,0,0,0,5.05,4.68Z" style="fill:#263238"></path><path d="M372.91,432.24a15.78,15.78,0,0,0-2.29-2.59,15.36,15.36,0,0,0-2.76-2.08,14.91,14.91,0,0,0,2.29,2.59A15.36,15.36,0,0,0,372.91,432.24Z" style="fill:#263238"></path><path d="M373,427.73a17.44,17.44,0,0,0-5-4.68,15.38,15.38,0,0,0,2.29,2.59A15.77,15.77,0,0,0,373,427.73Z" style="fill:#263238"></path><path d="M373,423.21a15.78,15.78,0,0,0-2.29-2.59,14.9,14.9,0,0,0-2.76-2.08,14.91,14.91,0,0,0,2.29,2.59A15.36,15.36,0,0,0,373,423.21Z" style="fill:#263238"></path><path d="M373.07,418.69a15.28,15.28,0,0,0-2.29-2.59A15,15,0,0,0,368,414a15.38,15.38,0,0,0,2.29,2.59A15.72,15.72,0,0,0,373.07,418.69Z" style="fill:#263238"></path><path d="M373.13,414.18a15.38,15.38,0,0,0-2.29-2.59,14.9,14.9,0,0,0-2.76-2.08,15.73,15.73,0,0,0,2.29,2.59A15.36,15.36,0,0,0,373.13,414.18Z" style="fill:#263238"></path><path d="M373.18,409.66a17.23,17.23,0,0,0-5.05-4.67,17.23,17.23,0,0,0,5.05,4.67Z" style="fill:#263238"></path><path d="M373.24,405.15a15.38,15.38,0,0,0-2.29-2.59,15,15,0,0,0-2.76-2.09,15,15,0,0,0,2.29,2.59A15.41,15.41,0,0,0,373.24,405.15Z" style="fill:#263238"></path><path d="M244.67,373.1C252.46,394.54,360.73,444,360.73,444L379.06,387l-49.71-21.18,105.31-15.45-53.74-20.05s-10.19,4.31-17.72,2.13c-3.33-1-74.28-10.78-88.08-7.35C244.66,332.73,237.51,353.43,244.67,373.1Z" style="fill:#37474f"></path><path d="M304.58,352.86a54.91,54.91,0,0,1,6.12,3l6.35,3.16.06,0c-.47-.38-.93-.77-1.41-1.14-1.63-1.29-3.13-2.71-4.88-3.85a.1.1,0,0,1,.11-.17c1.76,1.12,3.65,2.07,5.32,3.34.78.6,1.55,1.22,2.3,1.86.41.35.82.7,1.22,1.07a7,7,0,0,1,.55.54c1,.5,1.91,1,2.86,1.55,2.1,1.18,4.1,2.53,6.2,3.69.12.06,0,.22-.1.16-2.07-1-4.24-1.9-6.32-2.92s-4.2-2.17-6.26-3.31-4-2.26-6-3.37a56.22,56.22,0,0,1-6.14-3.5A.07.07,0,0,1,304.58,352.86Z" style="fill:#263238"></path><path d="M354.76,430.31c.47-1.62.94-3.23,1.43-4.85,1-3.22,1.92-6.45,2.91-9.67,2-6.4,3.92-12.8,6-19.16,1.19-3.59,2.37-7.2,3.72-10.74a.17.17,0,0,1,.32.1c-1.63,6.52-3.66,13-5.68,19.38s-4.08,12.76-6.17,19.12c-.59,1.78-1.17,3.56-1.78,5.34s-1.33,3.59-2,5.4a.07.07,0,1,1-.13,0C353.93,433.58,354.3,431.93,354.76,430.31Z" style="fill:#263238"></path><path d="M412.26,280c-10,19.57-26.21,42-31.45,45-6.63,3.76-44.3,4.21-46.11,4-4.47-.67-5.26-34.26-.45-33.75,7.32.76,33.37,5.86,35.31,4.67s16.32-12.18,31.38-24.81C411.34,266.35,418.48,267.89,412.26,280Z" style="fill:#eb9481"></path><path d="M338.63,328.16c-.58.13-8.9,2-13.79,2.14-3.65.13-14.17.21-14.71-3.8-.37-2.73,5.81-3.5,10.17-4.15,2.3-.34,5.41-1.87,5.13-3.36-.48-2.6-6.42-1.61-10.45-.46-7.8,2.24-18.66,7.06-21.94,2.56-1.24-1.7,1.18-3.62,4.44-5.27-5,1.62-10.2,2.68-11.65.84-.83-1.05-.61-2.14.28-3.22a3.13,3.13,0,0,1-3.21-1.37c-1-1.83.2-3.83,2.3-5.67a1.7,1.7,0,0,1-1.06-1.16c-1.83-5.29,16.38-14.57,21.84-14.48,16.09.23,31.91,4.94,31.91,4.94C342.64,302,338.65,328.15,338.63,328.16Z" style="fill:#eb9481"></path><path d="M319.85,308.55a26.5,26.5,0,0,0-11.1,1.34c-4.49,1.56-7.79,3.89-11.78,6.06-.1.06,0,.23.09.17,1.89-1,9.62-4.77,11.57-5.57a25.38,25.38,0,0,1,11.22-1.94S319.89,308.55,319.85,308.55Z" style="fill:#263238"></path><path d="M318.65,301.4a63.14,63.14,0,0,0-12.8,1.1c-4.58,1-8.6,3.6-12.53,6.05q-3.56,2.2-7,4.57c-.1.07,0,.23.08.17q6-3.82,12.25-7.28A33.47,33.47,0,0,1,311.11,302c2.51-.29,5-.39,7.54-.49A0,0,0,1,0,318.65,301.4Z" style="fill:#263238"></path><path d="M315.82,294.69c-4.08-.19-7.63-.36-11.59.85-5.23,1.6-10.79,5.12-12.74,6.37-2.16,1.39-4.27,2.84-6.36,4.33-.08.06,0,.21.11.15A133.57,133.57,0,0,1,300,297.67a26.21,26.21,0,0,1,7.69-2.62,46.77,46.77,0,0,1,8.11-.33S315.84,294.69,315.82,294.69Z" style="fill:#263238"></path><path d="M397.8,308.69,386,283.59a178.56,178.56,0,0,1,17.39-12.37c10.22-6.41,15.23-2.9,9.13,12.18A103.45,103.45,0,0,1,397.8,308.69Z" style="fill:#407BFF"></path><path d="M393.13,278.72a2,2,0,0,1-2,2,1.91,1.91,0,0,1-1.08-.32c.87-.66,1.87-1.4,3-2.21A1.91,1.91,0,0,1,393.13,278.72Zm17.3-2a2,2,0,1,0,2,2A2,2,0,0,0,410.43,276.73Zm-9.65,14.62a2,2,0,1,0,2,2A2,2,0,0,0,400.78,291.35Z" style="fill:#fff"></path><path d="M389.64,281.86c1.08,1.76,1.91,3.69,2.85,5.53s1.79,3.53,2.63,5.31c1.73,3.72,3.39,7.45,5,11.24,0,.06-.08.12-.12.05-1.84-3.61-3.64-7.23-5.39-10.89-.87-1.81-1.7-3.65-2.52-5.49s-1.84-3.75-2.54-5.7C389.5,281.85,389.6,281.79,389.64,281.86Z" style="fill:#263238"></path><path d="M412.49,283.4a103.45,103.45,0,0,1-14.69,25.29l-9.89-21,24.78-19.32C415.81,269.41,416.17,274.3,412.49,283.4Z" style="opacity:0.1"></path><path d="M456.32,360.61c-2.53,1-76.78-16.53-76.78-16.53l7.36-25.84s-4.68-8-3.1-15.92c2.12-10.63,20.69-28.88,22.16-30,5.93-4.38,11.32-5.23,16.53-2.79C444.22,279.74,456.32,360.61,456.32,360.61Z" style="fill:#407BFF"></path><path d="M412.42,278.72a2,2,0,1,1-2-2A2,2,0,0,1,412.42,278.72Zm19.27-.19h0c-.37-.55-.74-1.09-1.12-1.6a2,2,0,0,0-.86-.19,2,2,0,1,0,2,2A1.15,1.15,0,0,0,431.69,278.53Zm-40.55,27.53a2,2,0,1,0,2,2A2,2,0,0,0,391.14,306.06Zm19.29,0a2,2,0,1,0,2,2A2,2,0,0,0,410.43,306.06Zm19.28,0a2,2,0,1,0,2,2A2,2,0,0,0,429.71,306.06Zm-28.93-14.71a2,2,0,1,0,2,2A2,2,0,0,0,400.78,291.35Zm19.29,0a2,2,0,1,0,2,2A2,2,0,0,0,420.07,291.35Zm18.41.2a2,2,0,0,0,.87,3.78,2.19,2.19,0,0,0,.63-.1C439.49,294,439,292.75,438.48,291.55Zm-47.34,43.84a2,2,0,1,0,2,2A2,2,0,0,0,391.14,335.39Zm19.29,0a2,2,0,1,0,2,2A2,2,0,0,0,410.43,335.39Zm19.28,0a2,2,0,1,0,2,2A2,2,0,0,0,429.71,335.39Zm19.28,0a2,2,0,1,0,2,2A2,2,0,0,0,449,335.39Zm-48.21-14.71a2,2,0,1,0,2,2A2,2,0,0,0,400.78,320.68Zm19.29,0a2,2,0,1,0,2,2A2,2,0,0,0,420.07,320.68Zm19.28,0a2,2,0,1,0,2,2A2,2,0,0,0,439.35,320.68ZM420.07,350a2,2,0,0,0-1.72,3l2.85.64a2,2,0,0,0-1.13-3.63Zm19.28,0a2,2,0,1,0,2,2A2,2,0,0,0,439.35,350Z" style="fill:#fff"></path><path d="M392.86,316.63a18.71,18.71,0,0,1,7.86,1.59c2.6,1,8.45,4.37,9.92,5.19,0,0,0,.11,0,.1a34.45,34.45,0,0,1-5.56-2.34,75.94,75.94,0,0,0-7.76-3.28,21.93,21.93,0,0,0-4.43-1C392.78,316.88,392.76,316.63,392.86,316.63Z" style="fill:#263238"></path><path d="M388.48,319.29a14.3,14.3,0,0,1,8.16.58s0,.11,0,.1c-1.36-.16-2.71-.33-4.07-.41s-2.72-.09-4.08-.14C388.44,319.42,388.43,319.3,388.48,319.29Z" style="fill:#263238"></path><rect x="314.86" y="326.91" width="76.46" height="3.42" style="fill:#c7c7c7"></rect><polygon points="314.86 326.91 314.86 330.33 360.72 330.33 358.1 326.91 314.86 326.91" style="fill:#a6a6a6"></polygon><polygon points="349.38 330.33 274.87 330.33 268.66 279.73 343.18 279.73 349.38 330.33" style="fill:#a6a6a6"></polygon><polygon points="345.48 330.33 270.96 330.33 264.76 279.73 339.28 279.73 345.48 330.33" style="fill:#c7c7c7"></polygon><path d="M309.66,305a4.44,4.44,0,0,1-4.46,4.54,4.64,4.64,0,0,1-4.62-4.54,4.46,4.46,0,0,1,4.46-4.54A4.65,4.65,0,0,1,309.66,305Z" style="fill:#fff"></path><path d="M432.06,279.73c8.67,14.44,26.23,63.52,16,70.41s-56.74-12.8-69.24-21.65c-3.72-2.63,16.05-25.23,20.91-25,4.05.2,21.86,12.47,22.64,11.41s-1.14-11.23-3-29.68C417.33,263.94,427.07,271.42,432.06,279.73Z" style="fill:#eb9481"></path><path d="M381.05,291.86c-9.61-3.07-12.55-2.39-19.29-9.29-4.42-4.53-9.21-3.65-7.33,2.66,3.07,10.31,14.64,16.88,19.31,18Z" style="fill:#eb9481"></path><path d="M405.57,305.86s-10-8.06-19.92-12.35c-6.86-3-22.5-7.75-40.53,5.38-4.28,3.12-8.16,10.59.67,8,6.27-1.81,9.7-4.86,13.54-5.25,0,0-3.81,10.09-.52,14.26a97.57,97.57,0,0,0,9.37,10.26,21.5,21.5,0,0,0,2.08-1.58s3.44,3.6,11,4.17Z" style="fill:#eb9481"></path><path d="M378.65,291.73c-3.73,1.19-11.6,3.85-17.27,8.27-6.31,4.9-17.13,16.05-13.46,20.66,2.68,3.39,7.19-.5,7.19-.5s-3.5,5.55-.4,8.07c2.82,2.31,6.13-.91,6.13-.91s-1.55,3.73,1.6,5.42c3.78,2,6.4-6.12,12-7.36C375.72,325.1,378.65,291.73,378.65,291.73Z" style="fill:#eb9481"></path><path d="M367.67,305.8c-3.33,1.69-9.89,7.49-12.58,14.19-.07.16,0,.28.1.16a77.81,77.81,0,0,1,12.53-14.29S367.71,305.78,367.67,305.8Z" style="fill:#263238"></path><path d="M372.43,312.3c-2.71,1.76-9.21,8-11.71,14.93-.06.15,0,.27.11.14a84.61,84.61,0,0,1,11.65-15S372.47,312.28,372.43,312.3Z" style="fill:#263238"></path><path d="M359.34,301.62c-3.37.39-5.73,1.6-8.76,3a44.85,44.85,0,0,1-4.59,1.91c-1.43.48-3.54,1.21-4.74-.13a2.67,2.67,0,0,1-.14-2.73,12.84,12.84,0,0,1,2.39-3.34s0-.11-.06-.07a18.22,18.22,0,0,0-2.49,2.92,4.31,4.31,0,0,0-.72,2.45c.16,1.85,2.21,2.45,3.77,2.22a14.76,14.76,0,0,0,2.74-.79c.85-.31,1.69-.66,2.52-1,1.71-.77,3.37-1.63,5.06-2.42a43.11,43.11,0,0,1,5.05-1.88C359.44,301.71,359.41,301.61,359.34,301.62Z" style="fill:#263238"></path><path d="M350.67,311.75a102,102,0,0,1,8.73-10.05s0-.1-.06-.07c-2.91,1.94-8,7.54-9.31,9.4s-2.77,4.2-3.16,6.42c-.58,3.36,1.54,4.38,2.33,4.68a4.43,4.43,0,0,0,2.94,0,8.84,8.84,0,0,0,3-2c.05,0,0-.11-.05-.07-1.39,1.12-3.55,2.09-5.33,1.53a3.09,3.09,0,0,1-1.88-1.47,4,4,0,0,1-.07-2.8A18.5,18.5,0,0,1,350.67,311.75Z" style="fill:#263238"></path><path d="M422.41,314.9a28.2,28.2,0,0,1,4.86,2.65,26.56,26.56,0,0,1,4.28,3.51c-1.64-.88-3.17-1.87-4.7-2.89A51.7,51.7,0,0,1,422.41,314.9Z" style="fill:#263238"></path><path d="M446.43,306l-27.51-3.63a178,178,0,0,1-1-21.31c.14-12.07,5.79-14.39,15.18-1.1A103.51,103.51,0,0,1,446.43,306Z" style="fill:#407BFF"></path><path d="M431.7,278.72a2,2,0,1,1-2-2A2,2,0,0,1,431.7,278.72Zm-11.63,12.63a2,2,0,0,0-1.9,1.4,0,0,0,0,0,0,0c0,.46.05.91.07,1.35h0a2,2,0,1,0,1.82-2.78Zm21.24,2.34h0a2,2,0,1,1-2-2.35,2,2,0,0,1,.85.19Z" style="fill:#fff"></path><path d="M419.44,298.3c2.07,0,4.15.38,6.21.59s3.93.4,5.88.67q6.09.82,12.14,1.9a.06.06,0,0,1,0,.12q-6-.6-12.07-1.35c-2-.25-4-.55-6-.86s-4.14-.48-6.16-.95A.06.06,0,0,1,419.44,298.3Z" style="fill:#263238"></path><path d="M418.28,299.53c-.11-1-.19-2-.25-3,0-.2,0-.41,0-.62-.33-1.22-.66-2.45-.87-3.69a0,0,0,1,1,.07,0c.3.92.54,1.86.75,2.81a42.26,42.26,0,0,1-.06-4.64,0,0,0,1,1,.07,0c.26,2,.38,4,.56,6.05.09,1,.42,5.8.48,5.81s2.29.38,2.43.45.07.19,0,.19l-2.84-.37S418.37,300.39,418.28,299.53Z" style="fill:#263238"></path><path d="M148.48,434.48c2.61,1.59,83.63,20.07,87.17,18.82,1.34-.46,4.61-.63,8.29-14.81.8-3.07,52.5-27.78,52.5-27.78l-53.63-24-51,28.26s-34.18,6.8-37.91,8.58S145.86,432.89,148.48,434.48Z" style="fill:#eb9481"></path><path d="M148.48,434.48c2.62,1.6,83.62,20.08,87.17,18.83,1.34-.47,4.61-.64,8.29-14.83.22-.84,4.61-3.19,10.89-6.18l-53.16-22.81-9.82,5.45s-34.18,6.81-37.91,8.59S145.87,432.89,148.48,434.48Z" style="fill:#407BFF"></path><path d="M251,432.34a14.94,14.94,0,0,0-3.24,1.19,15.33,15.33,0,0,0-2.95,1.82,15.05,15.05,0,0,0,3.25-1.2A15.72,15.72,0,0,0,251,432.34Z" style="fill:#263238"></path><path d="M246.77,430.65a17.1,17.1,0,0,0-6.18,3,15.16,15.16,0,0,0,3.24-1.2A15.4,15.4,0,0,0,246.77,430.65Z" style="fill:#263238"></path><path d="M242.58,429a17.1,17.1,0,0,0-6.18,3,14.94,14.94,0,0,0,3.24-1.19A15.45,15.45,0,0,0,242.58,429Z" style="fill:#263238"></path><path d="M238.39,427.27a15.16,15.16,0,0,0-3.24,1.2,14.91,14.91,0,0,0-2.94,1.81,17.1,17.1,0,0,0,6.18-3Z" style="fill:#263238"></path><path d="M234.2,425.58a15.72,15.72,0,0,0-3.24,1.2,15.4,15.4,0,0,0-2.94,1.81,17.1,17.1,0,0,0,6.18-3Z" style="fill:#263238"></path><path d="M230,423.89a15.81,15.81,0,0,0-3.25,1.2,15.26,15.26,0,0,0-2.94,1.82,15.51,15.51,0,0,0,3.24-1.2A15.33,15.33,0,0,0,230,423.89Z" style="fill:#263238"></path><path d="M225.83,422.21a17,17,0,0,0-6.19,3,15.25,15.25,0,0,0,3.25-1.2A15.72,15.72,0,0,0,225.83,422.21Z" style="fill:#263238"></path><path d="M221.64,420.52a15.78,15.78,0,0,0-3.25,1.19,15.26,15.26,0,0,0-2.94,1.82,15.25,15.25,0,0,0,3.25-1.2A15.72,15.72,0,0,0,221.64,420.52Z" style="fill:#263238"></path><path d="M217.45,418.83a17.25,17.25,0,0,0-6.19,3,15.22,15.22,0,0,0,3.25-1.19A15.77,15.77,0,0,0,217.45,418.83Z" style="fill:#263238"></path><path d="M213.26,417.14a15,15,0,0,0-3.24,1.2,15.79,15.79,0,0,0-3,1.81,17,17,0,0,0,6.19-3Z" style="fill:#263238"></path><path d="M209.07,415.45a15.51,15.51,0,0,0-3.24,1.2,15,15,0,0,0-2.94,1.82,15.51,15.51,0,0,0,3.24-1.2A15,15,0,0,0,209.07,415.45Z" style="fill:#263238"></path><path d="M204.88,413.76a15.51,15.51,0,0,0-3.24,1.2,15,15,0,0,0-2.94,1.82,17.35,17.35,0,0,0,6.18-3Z" style="fill:#263238"></path><path d="M200.69,412.08a15.14,15.14,0,0,0-3.24,1.19,15,15,0,0,0-2.94,1.82,15,15,0,0,0,3.24-1.2A15.4,15.4,0,0,0,200.69,412.08Z" style="fill:#263238"></path><path d="M205.36,405.45,260,431.69l89.78-44.36s20.58,15.94,42.68,20.09c15,2.82,46.52,2.7,58.71-14.76,10.27-14.71,4.2-32,4.2-32l-17.22-7.83s-40.51-29-65.87-31.62C333.59,317.17,205.36,405.45,205.36,405.45Z" style="fill:#37474f"></path><path d="M423,342.8c2.46,1.47,4.84,3,7.27,4.56s4.84,2.88,7.13,4.53,4.54,3.48,6.74,5.31c1.07.88,2.12,1.77,3.16,2.69a27.42,27.42,0,0,1,3,2.87c.08.1-.06.24-.16.18a31.65,31.65,0,0,1-3.32-2.35c-1.16-.84-2.31-1.71-3.46-2.57-2.23-1.65-4.5-3.24-6.73-4.9s-4.28-3.47-6.47-5.14c-2.35-1.78-4.8-3.43-7.23-5.1C422.94,342.84,423,342.77,423,342.8Z" style="fill:#263238"></path><path d="M349.86,387.39a127,127,0,0,0,14.45,9.26l22.77-28.52Z" style="fill:#263238"></path><path d="M218.47,400.56c1.8.69,3.56,1.53,5.32,2.32l5.19,2.36c3.54,1.63,7,3.33,10.55,5,7,3.37,22.79,12.22,26.7,14.18.07,0,0,.16-.06.13-7.06-3.14-29.18-14.22-36.17-17.72q-2.9-1.47-5.78-3c-1.94-1-3.94-2-5.82-3.14C218.32,400.67,218.38,400.52,218.47,400.56Z" style="fill:#263238"></path><path d="M247.42,378c1.49-1.24,33.24-20.33,40.07-24.21s13.71-7.6,20.69-11.17,14-6.94,21.22-10,14.32-5.94,21.69-8.28c1-.29,1.89-.59,2.83-.92.09,0,.12.11,0,.14-3.73,1.28-7.37,2.84-11,4.33s-7.17,3-10.72,4.58q-10.66,4.75-21,10.12t-20.47,11.12q-10.18,5.8-20.23,11.86c-3.35,2-22,12.34-22.86,12.73C247.45,378.39,247.26,378.17,247.42,378Z" style="fill:#263238"></path><path d="M297.25,413c3.34-1.83,6.76-3.56,10.14-5.31s6.81-3.46,10.24-5.16q10.17-5,20.42-9.91c3.86-1.84,7.74-3.72,11.72-5.32a.07.07,0,0,1,.06.13c-3.28,1.92-6.71,3.66-10.11,5.37s-6.83,3.42-10.25,5.12c-6.77,3.37-13.54,6.76-20.4,9.95-3.89,1.8-7.76,3.65-11.69,5.36C297.22,413.29,297.1,413.07,297.25,413Z" style="fill:#263238"></path><path d="M419.37,270.92c0,1.36-4.28,11.14-10.25,12.2-1.94.34-4.28-10.19-4.28-10.19l-.35-.74-4.9-10.33,12.54-12.6S419.37,270.34,419.37,270.92Z" style="fill:#eb9481"></path><path d="M399.59,261.85l4.9,10.34a23,23,0,0,0,10.09-15.73c-1.23-3.65-2.28-6.69-2.42-7.14l0-.06-1.61,1.5Z" style="fill:#263238"></path><path d="M415.87,254.79a4.83,4.83,0,0,1,.74,1.71c.59,2.79-.9,5.45-2.63,7.49s-4.36,4.09-5.43,6.83a4.76,4.76,0,0,0-.19,3.36,4.32,4.32,0,0,0,2.74,2.39c1.23.49,2.79.8,3.54,2a3.73,3.73,0,0,1,0,3.35c-1.14,2.71-4.3,3.87-6.31,5.83a14.83,14.83,0,0,0-4.21,7.73,14.45,14.45,0,0,0,.8,8.22,14.15,14.15,0,0,0,2,3.54c.95,1.19,2.15,2.15,3.15,3.3a5.27,5.27,0,0,1,1.58,3.92c-.14,1.14-2.79,4.44-7.81,5.69-.36.09-.17.73.23.77a19.36,19.36,0,0,0,2.28.13,20,20,0,0,0,16.13-8.35,20.77,20.77,0,0,0,3.59-9.37,33.9,33.9,0,0,1,.86-5.58,10.42,10.42,0,0,1,2.58-4.19c2.22-2.29,4.95-4,6.77-6.69a17.58,17.58,0,0,0,2.83-8.05,20.68,20.68,0,0,0-5.76-16.21C429.34,258.36,415.68,254.5,415.87,254.79Z" style="fill:#263238"></path><path d="M416,255a8.12,8.12,0,0,1,1.07,3.51,6.68,6.68,0,0,1-.8,3.22c-1.15,2.24-3.1,3.8-5,5.4s-3.55,3.18-4.15,5.5a5.61,5.61,0,0,0,0,3,4.28,4.28,0,0,0,2.2,2.4c1.84,1,4.47,1.61,5,4s-1.55,4.21-3,5.62c-3.57,3.44-8.73,7.38-8,13a18.34,18.34,0,0,0,3.59,7.93c1.19,1.66,2.71,3.75,2.14,5.91,0,.08-.14,0-.12-.05.58-2.29-1.32-4.12-2.61-5.76a19.47,19.47,0,0,1-3.48-6.54,9.46,9.46,0,0,1,.86-7.12,22,22,0,0,1,4.85-5.81c1-.88,1.94-1.74,2.87-2.65a8,8,0,0,0,2.1-2.84,2.77,2.77,0,0,0-.88-3.17,14.27,14.27,0,0,0-3.2-1.71,5.65,5.65,0,0,1-2.44-2,5,5,0,0,1-.69-2.51,8.06,8.06,0,0,1,2.14-5.4c1.85-2.11,4.35-3.55,6.16-5.7a6.67,6.67,0,0,0,1.11-8.07A.15.15,0,0,1,416,255Z" style="fill:#263238"></path><path d="M436,262.86c4.24,4.28,5.41,10.79,3.78,16.46a20.81,20.81,0,0,1-4.92,8.44c-2.11,2.25-4.57,4.25-6.16,6.93-1.76,3-1.58,6.36-1.91,9.66a18.53,18.53,0,0,1-2.44,7.58,19.75,19.75,0,0,1-12,9.13c-.64.16-1.28.3-1.94.4a.07.07,0,0,1,0-.13,19,19,0,0,0,12.52-8.4,18.6,18.6,0,0,0,2.83-7c.55-3.09.17-6.3,1.13-9.33.9-2.83,3-5,5.09-7.06a27.77,27.77,0,0,0,5.92-7.3,17,17,0,0,0-.84-16.94c-3.79-5.59-10.46-7.81-16.77-9.09-.84-.18-1.69-.34-2.53-.5-.1,0-.08-.17,0-.16C424.27,256.54,431.24,258,436,262.86Z" style="fill:#263238"></path><path d="M417.47,251.59c1,.32,1.95,1.45,1.9,2.14s-3.68,4.57-5,4.54-1.63-2.45-1.63-2.45Z" style="fill:#407BFF"></path><path d="M379.48,250.25c2.81,19.87,15,20.43,19.31,19.82,3.89-.55,17.06-2.93,16.32-23s-10.87-25-19.83-24.23S376.67,230.38,379.48,250.25Z" style="fill:#eb9481"></path><path d="M381.91,248.1c.44-.15.83-.37,1.26-.56a2.21,2.21,0,0,0,1.18-.82.72.72,0,0,0-.18-.86,1.79,1.79,0,0,0-1.79,0,2.72,2.72,0,0,0-1.41,1.24A.77.77,0,0,0,381.91,248.1Z" style="fill:#263238"></path><path d="M395.28,245.44c-.47,0-.92,0-1.39,0a2.16,2.16,0,0,1-1.41-.27.7.7,0,0,1-.18-.85,1.77,1.77,0,0,1,1.62-.77,2.64,2.64,0,0,1,1.79.56A.77.77,0,0,1,395.28,245.44Z" style="fill:#263238"></path><path d="M392.67,248.92s.12,0,.13.1c.21,1.35.68,2.86,2,3.08,0,0,.05.07,0,.07C393.26,252.25,392.66,250.23,392.67,248.92Z" style="fill:#263238"></path><path d="M393.61,247.29c2.13-.57,3.11,3.73,1.14,4.26S391.82,247.77,393.61,247.29Z" style="fill:#263238"></path><path d="M394.5,247.32c.44.16.9.51,1.36.45s.83-.61,1.08-1.12c0-.06.07,0,.08,0a1.6,1.6,0,0,1-.78,2.06c-.78.3-1.52-.3-1.92-1.08C394.25,247.52,394.33,247.26,394.5,247.32Z" style="fill:#263238"></path><path d="M385.29,250.28c0-.05-.09.09-.08.14.36,1.32.55,2.89-.55,3.62,0,0,0,.09,0,.07C386.11,253.55,385.84,251.47,385.29,250.28Z" style="fill:#263238"></path><path d="M383.77,249.17c-2.18.35-1.32,4.68.69,4.36S385.6,248.88,383.77,249.17Z" style="fill:#263238"></path><path d="M382.92,249.64c-.29.29-.55.78-.95.88s-.91-.27-1.3-.66c0,0-.07,0-.06.06.14.83.58,1.64,1.41,1.64s1.15-.81,1.18-1.67C383.21,249.73,383,249.52,382.92,249.64Z" style="fill:#263238"></path><path d="M395.66,260.55c-.23.4-.42.91-.89,1.08a3.49,3.49,0,0,1-1.51.06.06.06,0,0,0,0,.09,1.86,1.86,0,0,0,1.87.25,1.45,1.45,0,0,0,.71-1.46C395.8,260.49,395.69,260.49,395.66,260.55Z" style="fill:#263238"></path><path d="M388.83,256.84s.16,2.05.36,3c0,.09.26.08.58,0h0a4.58,4.58,0,0,0,4-2.62.1.1,0,0,0-.17-.1,6.92,6.92,0,0,1-3.83,2.06c-.12-.25-.15-3.53-.3-3.51a8.37,8.37,0,0,0-2,.95c-.46-4.27-.22-8.57-.74-12.82a.13.13,0,0,0-.26,0,69.61,69.61,0,0,0,.21,13.85C386.71,258.21,388.49,257.08,388.83,256.84Z" style="fill:#263238"></path><path d="M390.24,259.41a5.16,5.16,0,0,0,2.33,1.18,2.36,2.36,0,0,0,1.4-.18c.95-.46.8-1.39.46-2.14a5.16,5.16,0,0,0-.68-1.11A6.71,6.71,0,0,1,390.24,259.41Z" style="fill:#263238"></path><path d="M392.57,260.59a2.36,2.36,0,0,0,1.4-.18c.95-.46.8-1.39.46-2.14A2.41,2.41,0,0,0,392.57,260.59Z" style="fill:#ff98b9"></path><path d="M415.85,248.38c-3.16,1.14-6.6-6.7-6.6-6.7s-6.55,1.83-11.32-7a15.05,15.05,0,0,0,5.06,7s-11.91,2-19.45-6.37c0,0,3.3,4.4,5.61,5.65,0,0-5.23,0-8.68-3.3,0,0-.48,6.14-1.62,8.12,0,0-6.6-20.9,14.23-23.4,0,0,13.4-3.41,20.18,4.71S415.85,248.38,415.85,248.38Z" style="fill:#263238"></path><path d="M412.17,249.06s2.86-7.09,6-6.21,2,10.47-1,12.43a3.39,3.39,0,0,1-4.84-.75Z" style="fill:#eb9481"></path><path d="M417.74,245.59c.06,0,.08,0,0,.08-2.06,1.45-2.78,3.84-3.11,6.23a1.87,1.87,0,0,1,2.61-1.13c.07,0,0,.13,0,.14a2.07,2.07,0,0,0-2.07,1.22,10.09,10.09,0,0,0-.66,2.06c-.06.23-.45.21-.43-.05a.43.43,0,0,1,0,0C413.37,251.19,414.69,246.6,417.74,245.59Z" style="fill:#263238"></path></g></svg>
